<?xml version="1.0" encoding="utf-8"?>
<!-- Generator: Adobe Illustrator 23.0.1, SVG Export Plug-In . SVG Version: 6.00 Build 0)  -->
<svg version="1.1" xmlns="http://www.w3.org/2000/svg" xmlns:xlink="http://www.w3.org/1999/xlink" x="0px" y="0px"
	 viewBox="0 0 750 420" style="enable-background:new 0 0 750 420;" xml:space="preserve">
<style type="text/css">
	.st0{fill:#F3F4FF;}
	.st1{fill:#FFFFFF;}
	.st2{fill:#DFDFDF;}
	.st3{fill:#263238;}
	.st4{fill:#33475B;}
	.st5{fill:#EAEAEA;}
	.st6{fill:#465B65;}
	.st7{fill:#FABC9D;}
	.st8{fill:#EB986F;}
	.st9{fill:#6B77B8;}
	.st10{fill:#253342;}
	.st11{fill:#F9FAFB;}
	.st12{fill:#F2725F;}
</style>
<g id="BG">
	<rect x="-0.01" y="0" class="st0" width="750.01" height="420.01"/>
</g>
<g id="Layer_1">
	<path class="st1" d="M399.98,108.56l-0.05,0.31l-1.42-0.27l0.05-0.24l0.9-0.58c0.22-0.14,0.27-0.24,0.3-0.35
		c0.03-0.11-0.07-0.31-0.31-0.35c-0.17-0.04-0.35,0.01-0.49,0.12l-0.22-0.23c0.22-0.18,0.52-0.25,0.8-0.18
		c0.42,0.08,0.64,0.34,0.58,0.68c-0.05,0.24-0.21,0.45-0.43,0.55l-0.61,0.39L399.98,108.56z"/>
	<path class="st1" d="M400.35,107.65c0.03-0.12,0.15-0.2,0.27-0.17c0.12,0.03,0.2,0.15,0.17,0.27c-0.03,0.12-0.14,0.2-0.26,0.17
		C400.41,107.9,400.33,107.78,400.35,107.65C400.35,107.66,400.35,107.65,400.35,107.65z M400.15,108.7
		c0.02-0.13,0.14-0.21,0.27-0.19c0.12,0.02,0.2,0.14,0.18,0.26c0,0,0,0.01,0,0.01c-0.02,0.12-0.13,0.21-0.26,0.19c0,0,0,0-0.01,0
		C400.21,108.94,400.13,108.83,400.15,108.7z"/>
	<path class="st1" d="M401.79,107.24l-0.36,1.92l-0.36-0.06l0.32-1.63l-0.41-0.08l0.05-0.3L401.79,107.24z"/>
	<path class="st1" d="M403.6,109.12l-0.34-0.06l-0.08,0.43l-0.35-0.06l0.09-0.43l-1.06-0.21l0.05-0.24l1.18-1.06l0.39,0.07
		l-1.12,1.01l0.62,0.12l0.07-0.38l0.34,0.06l-0.08,0.39l0.34,0.06L403.6,109.12z"/>
	<path class="st2" d="M154.51,90.13c0.2,1.03,0.28,2.08,0.24,3.14c0.05,1.94,0.1,4.62,0.1,7.57c0,0.14,0,0.26,0,0.39v0.37h-0.33
		c-2.87,0-5.42-0.05-7.32-0.1c-1.01,0.03-2.02-0.05-3.01-0.23c0.99-0.19,2-0.27,3.01-0.23c1.86-0.06,4.45-0.1,7.32-0.11l-0.33,0.34
		v-0.39c0-2.95,0-5.63,0.1-7.57C154.25,92.24,154.33,91.18,154.51,90.13z"/>
	<path class="st2" d="M199.61,117.16c0.1,0.62,0.14,1.24,0.13,1.86c0,1.32,0.06,3.03,0.11,5.07c0.06,4.28,0.1,10.2,0.1,16.73v1.18
		h-0.33c-6.33,0-12.05-0.05-16.17-0.11l-4.87-0.1c-0.61,0.01-1.21-0.03-1.81-0.14c0.6-0.1,1.2-0.14,1.81-0.13l4.87-0.1
		c4.12-0.06,9.82-0.1,16.17-0.11l-0.33,0.33c0-0.26,0-0.55,0-0.84c0-6.53,0.05-12.45,0.1-16.73c0-2.04,0.08-3.75,0.11-5.07
		C199.47,118.4,199.51,117.77,199.61,117.16z"/>
	<g id="freepik--Desk--inject-46">
		<path class="st3" d="M649.73,398.16c0,0.13-131.47,0.23-293.61,0.23s-293.66-0.11-293.66-0.23c0-0.13,131.44-0.24,293.66-0.24
			S649.73,398.03,649.73,398.16z"/>
	</g>
	<g id="freepik--Device--inject-46">
		<path class="st4" d="M121.85,387.73V99.58c0-5.76,4.67-10.44,10.44-10.44H554.9c5.76,0,10.44,4.67,10.44,10.44v288.15
			c0,5.76-4.67,10.44-10.44,10.44H132.29C126.52,398.16,121.85,393.49,121.85,387.73z"/>
		<rect x="152.19" y="98.88" class="st5" width="370.36" height="289.54"/>
		<path class="st6" d="M543.04,231.79c6.55,0,11.87,5.3,11.87,11.85c0,6.55-5.3,11.87-11.85,11.87s-11.87-5.3-11.87-11.85
			c0-0.01,0-0.01,0-0.02C531.19,237.1,536.5,231.79,543.04,231.79z"/>
		<path class="st6" d="M134.62,289.08v-90.87c0-0.61,0.49-1.1,1.1-1.1h2.69c0.61,0,1.1,0.49,1.1,1.1v90.87c0,0.61-0.49,1.1-1.1,1.1
			h-2.69C135.11,290.19,134.62,289.69,134.62,289.08z"/>
	</g>
	<g id="freepik--Character--inject-46">
		<path class="st3" d="M281.81,156.46c-1.41,10.09-0.33,18.56-6.33,26.51c-2.36,3.12-5.61,5.78-6.68,9.55
			c-0.75,2.63-0.32,5.48-1.02,8.13c-1.67,6.25-8.7,9.04-13.81,13.07c-6.47,5.07-10.33,12.89-12.15,20.92
			c-1.83,8.02-1.81,16.33-1.75,24.55c0,3.51,0.31,7.56,3.16,9.6c1.97,1.4,4.56,1.37,6.98,1.29l46.41-1.54
			c1.39-0.05,2.92-0.15,3.89-1.13c0.73-0.91,1.15-2.03,1.21-3.19c4.02-25.9,8.04-51.81,12.04-77.71L281.81,156.46z"/>
		<path class="st3" d="M408.53,183.39c-6.04-24.84,5.05-21.69,1.81-47.04c-0.81-6.33-5.77-35.6-8.13-41.56
			c-6.19-15.46-31.9-46.53-62.89-24.87c-1.57,4.12,2.11,18.15,5.33,21.17s17.75-6.87,20.46-3.4c2.13,2.71,3.33,6.04,5.14,8.98
			c1.66,2.71,3.83,5.1,5.27,7.92c1.66,3.29,2.25,7.01,2.71,10.67c1.47,11.68,1.91,23.67-0.84,35.12
			c-3.14,13.11-10.32,24.93-14.1,37.87c-3.56,12.25-4.01,25.2-1.3,37.67c0.41,2.54,1.36,4.97,2.77,7.12
			c3.33,4.52,9.88,5.58,15.24,3.99c5.37-1.59,9.83-5.33,14.01-8.95c3.68-3.23,7.35-6.6,9.84-10.8c2.71-4.59,3.9-9.94,5.04-15.12
			c0.72-2.84,1.14-5.75,1.26-8.67C410.02,190.09,409.48,186.69,408.53,183.39z"/>
		<path class="st7" d="M366.91,204.28L366.91,204.28c0.09-9.54,0-11.75,0-11.67c0,0.08,20.13-3.39,24.24-29.66
			c2.04-13.07,1.35-34.49,0.2-52c-1.03-15.76-11.51-35.07-27.21-33.37l-49.01,12.5c-4.77,0.52-8.35,4.6-8.25,9.4l5.49,105.34
			c0.34,0.92,0.84,1.77,1.5,2.5c11.29,14.85,30.32,22.87,45.56,12.13C363.63,215.43,366.28,210.06,366.91,204.28z"/>
		<path class="st3" d="M381.27,128.8c0.02,1.83-1.42,3.34-3.24,3.41c-1.77,0.15-3.33-1.17-3.47-2.94c0-0.03,0-0.06-0.01-0.09
			c-0.03-1.83,1.41-3.34,3.23-3.41c1.78-0.15,3.33,1.17,3.48,2.95C381.26,128.74,381.26,128.77,381.27,128.8z"/>
		<path class="st3" d="M346.9,129.55c0.02,1.83-1.42,3.34-3.24,3.41c-1.78,0.14-3.34-1.19-3.47-2.98c0-0.02,0-0.04,0-0.06
			c-0.02-1.83,1.42-3.33,3.24-3.41c1.77-0.15,3.33,1.17,3.47,2.94C346.9,129.48,346.9,129.51,346.9,129.55z"/>
		<path class="st3" d="M350.17,124.66c-0.56,0.16-2.95-1.92-6.95-3.06c-3.99-1.15-7.35-0.79-7.68-1.2c-0.16-0.2,0.48-0.59,1.95-0.79
			c2.11-0.21,4.24-0.01,6.27,0.61c1.98,0.54,3.83,1.49,5.42,2.8C350.19,123.95,350.44,124.6,350.17,124.66z"/>
		<path class="st3" d="M386.51,120.13c-0.37,0.45-3.52,0.09-7.46,1.41c-3.94,1.32-6.5,3.51-7.01,3.34
			c-0.25-0.06,0.05-0.75,1.17-1.74c1.61-1.37,3.48-2.41,5.5-3.05c1.94-0.68,4-0.93,6.04-0.74
			C386.13,119.53,386.69,119.92,386.51,120.13z"/>
		<path class="st3" d="M364.32,149.72c0-0.21,2.23-0.61,5.88-1.08c0.9-0.1,1.81-0.29,1.96-0.9s-0.18-1.66-0.62-2.71l-2.76-7.05
			c-3.82-10.03-6.6-18.27-6.19-18.42s3.83,7.85,7.65,17.88c0.9,2.48,1.81,4.83,2.64,7.08c0.35,1.06,0.96,2.25,0.49,3.61
			c-0.27,0.67-0.83,1.17-1.52,1.36c-0.51,0.14-1.04,0.21-1.57,0.22C366.62,149.9,364.33,149.92,364.32,149.72z"/>
		<path class="st8" d="M366.91,192.62c-12.38,0.22-24.58-3-35.24-9.31c0,0,8.89,18.16,35.18,15.65L366.91,192.62z"/>
		<path class="st3" d="M351.15,114.25c-0.35,0.98-3.98,0.52-8.23,1.05c-4.26,0.52-7.69,1.69-8.25,0.8c-0.25-0.42,0.34-1.35,1.73-2.3
			c1.84-1.2,3.93-1.94,6.12-2.17c2.18-0.26,4.38-0.01,6.44,0.74C350.52,113,351.3,113.77,351.15,114.25z"/>
		<path class="st3" d="M388.69,113.85c-0.77,0.82-3.8,0-7.45-0.05c-3.64-0.05-6.72,0.57-7.44-0.29c-0.31-0.42,0.17-1.25,1.52-2.03
			c1.86-0.98,3.95-1.44,6.05-1.36c2.09,0,4.14,0.57,5.94,1.64C388.59,112.61,389.04,113.45,388.69,113.85z"/>
		<path class="st3" d="M351.07,77.01c-0.3-0.54-0.7-1.01-1.18-1.39c-7.78-6.83-19.38-8.52-29.2-5.25S304,86.07,299.36,95.32
			c-3.76,7.48-7.85,18.37-8.03,26.76c-1.23,7.57-1.48,7.92-3.89,15.2c-2.77,8.38-6.76,16.78-5.94,25.56
			c0.53,5.81,3.17,11.46,2.45,17.24s-4.82,10.84-6.06,16.66c-0.81,3.74-0.41,7.64-0.06,11.41c0.41,4.93,1.18,9.82,2.31,14.64
			c0.12,0.71,0.43,1.38,0.9,1.93c0.6,0.53,1.33,0.9,2.11,1.09c12.6,4.17,25.78,8.39,38.85,6.39c0.94-0.06,1.85-0.4,2.6-0.97
			c0.11-0.11,0.2-0.23,0.26-0.37c3.67-8.03-10.13-18.46-10.54-27.38c-0.39-8.76-1.13-18.45,4.73-24.98
			c5.02-5.59,6.2-12.04,0.9-27.04c-1.11-3.08-1.73-6.32-1.83-9.6c0-0.42,0-0.83,0-1.25c0.36-9.94,9.4-16.89,16.17-24.16
			c9.41-10.18,15.35-23.08,16.97-36.85C351.43,78.75,351.36,77.85,351.07,77.01z"/>
		<path class="st3" d="M350.56,78.75c2.39,4.81,8.03,6.8,13.02,8.78c5.4,2.14,10.61,4.73,15.57,7.74c2.22,1.24,4.23,2.81,5.96,4.66
			c2.45,2.8,3.69,6.44,4.79,10c1.44,4.66,2.75,9.35,3.92,14.07c3.45-9.14,4.42-19.37,1.66-28.74c-2.76-9.37-9.49-17.72-18.51-21.45
			c-9.03-3.73-20.23-2.32-27.41,4.3"/>
		<path class="st6" d="M283.54,162.14c-0.21-1.47-0.3-2.95-0.28-4.43c0.12-10.19,4.48-19.87,12.04-26.72
			c5.02-4.61,11.69-8.08,18.36-12.04c6.35-3.62,12.04-8.29,16.83-13.82c2.06-2.43,3.95-5,5.66-7.69c1.47-2.36,2.78-4.8,3.93-7.33
			c1.69-3.65,3.01-7.46,3.94-11.38c0.37-1.38,0.54-2.48,0.7-3.21l0.17-0.84c0.02-0.1,0.04-0.19,0.08-0.28c0.01,0.1,0.01,0.19,0,0.29
			c0,0.22-0.07,0.5-0.13,0.85c-0.13,0.73-0.27,1.81-0.61,3.23c-0.87,3.95-2.15,7.79-3.81,11.48c-1.14,2.55-2.45,5.02-3.9,7.4
			c-1.71,2.72-3.6,5.31-5.67,7.76c-2.3,2.69-4.83,5.19-7.55,7.45c-2.94,2.41-6.07,4.59-9.36,6.5c-6.7,3.97-13.33,7.41-18.32,11.95
			c-4.45,3.97-7.86,8.97-9.92,14.57c-1.38,3.77-2.14,7.74-2.26,11.75c0,1.43,0,2.53,0.05,3.28l0.05,0.85
			C283.56,161.88,283.55,162.01,283.54,162.14z"/>
		<path class="st6" d="M284.02,176.8c-0.03-0.1-0.05-0.21-0.05-0.32c0-0.23-0.07-0.53-0.13-0.9c-0.12-0.81-0.23-2.02-0.33-3.61
			c-0.29-4.42,0.05-8.87,1.02-13.19c0.69-2.99,1.79-5.86,3.25-8.56c1.71-3.08,3.93-5.86,6.55-8.21c2.88-2.59,5.94-4.98,9.15-7.15
			c3.29-2.3,6.77-4.6,10.07-7.27c6.2-5.08,11.67-10.98,16.26-17.55c3.77-5.34,7.18-10.93,10.22-16.72c2.63-4.92,4.61-9.04,5.97-11.8
			c0.68-1.38,1.2-2.47,1.57-3.23l0.42-0.84c0.04-0.1,0.1-0.19,0.16-0.28c-0.03,0.1-0.07,0.2-0.12,0.3l-0.37,0.86l-1.55,3.29
			c-1.31,2.83-3.24,6.92-5.84,11.87c-3.01,5.83-6.41,11.44-10.17,16.82c-4.58,6.61-10.06,12.55-16.26,17.66
			c-3.33,2.71-6.81,4.99-10.1,7.28c-3.2,2.15-6.25,4.52-9.13,7.08c-2.6,2.33-4.79,5.08-6.5,8.13c-1.47,2.65-2.57,5.5-3.27,8.45
			c-1,4.29-1.39,8.7-1.17,13.1c0.07,1.55,0.16,2.76,0.24,3.61c0,0.39,0.06,0.7,0.08,0.9C284.03,176.61,284.03,176.71,284.02,176.8z"
			/>
		<path class="st6" d="M396.86,126.82c0,0,0-0.07,0.09-0.21s0.17-0.35,0.29-0.6c0.12-0.24,0.3-0.57,0.46-0.97s0.32-0.86,0.51-1.37
			c0.91-2.98,1.04-6.14,0.4-9.19c-0.94-4.53-3.06-8.72-6.13-12.18c-3.43-3.91-8.31-7.1-13.7-9.76s-10.8-4.67-15.57-6.84
			c-4.26-1.85-8.32-4.15-12.1-6.86c-2.53-1.85-4.79-4.06-6.71-6.54c-0.32-0.45-0.61-0.85-0.86-1.2c-0.25-0.35-0.41-0.67-0.56-0.9
			l-0.34-0.57c-0.04-0.06-0.08-0.13-0.1-0.2c0,0,0.05,0.05,0.14,0.17s0.23,0.33,0.37,0.55c0.14,0.23,0.35,0.54,0.61,0.9l0.9,1.17
			c1.96,2.43,4.23,4.57,6.77,6.39c3.78,2.65,7.82,4.91,12.06,6.72c4.76,2.14,10.17,4.15,15.6,6.81c5.43,2.67,10.35,5.91,13.82,9.94
			c3.1,3.52,5.22,7.8,6.14,12.41c0.62,3.1,0.43,6.31-0.56,9.32l-0.55,1.36c-0.17,0.4-0.37,0.7-0.51,0.96l-0.33,0.58
			C396.92,126.76,396.87,126.83,396.86,126.82z"/>
		<path class="st8" d="M362.13,156.8l-5.5-1.81c-0.35-0.16-0.73-0.19-1.1-0.11c-0.37,0.19-0.65,0.51-0.79,0.9
			c-0.71,1.3-1.2,2.72-1.43,4.18c-0.22,1.47,0.21,2.96,1.18,4.08c1.1,1.15,2.77,1.52,4.26,0.96c1.32-0.71,2.25-1.96,2.56-3.42
			c0.35-1.39,0.82-2.75,1.38-4.08L362.13,156.8z"/>
		<path class="st3" d="M358.87,164.99c0,0.05-0.21,0.3-0.8,0.52c-0.85,0.27-1.77,0.25-2.6-0.05c-1.24-0.49-2.22-1.47-2.71-2.71
			c-0.6-1.51-0.63-3.19-0.08-4.72c0.26-0.78,0.62-1.52,1.07-2.2c0.42-0.74,1.12-1.28,1.94-1.5c0.73-0.09,1.48,0.04,2.14,0.37
			l1.57,0.69c1.91,0.9,3.06,1.45,3.02,1.57c-0.05,0.12-1.29-0.25-3.26-0.95l-1.61-0.59c-0.53-0.23-1.11-0.32-1.68-0.24
			c-0.58,0.2-1.07,0.61-1.36,1.16c-0.38,0.63-0.68,1.29-0.9,1.99c-0.48,1.33-0.48,2.78,0,4.1c0.39,1.07,1.18,1.94,2.2,2.43
			c0.71,0.32,1.49,0.42,2.26,0.31C358.53,165.07,358.83,164.92,358.87,164.99z"/>
		<path class="st6" d="M369.19,124.31c-0.51-0.15-1.01-0.35-1.49-0.58c-1.18-0.44-2.44-0.6-3.7-0.47c-1.25,0.16-2.42,0.66-3.41,1.45
			c-0.75,0.61-1.12,1.11-1.19,1.06c0.22-0.51,0.55-0.95,0.98-1.3c0.99-0.93,2.26-1.51,3.61-1.66c1.32-0.15,2.66,0.07,3.88,0.62
			C368.36,123.62,368.81,123.92,369.19,124.31z"/>
		<path class="st6" d="M359.68,128.99c-0.02-0.09-0.02-0.18,0-0.27l-0.07-0.8c-0.01-0.43-0.06-0.87-0.14-1.29
			c-0.09-0.58-0.21-1.16-0.36-1.73c-0.96-3.65-3.12-6.88-6.14-9.15c-4.5-3.42-10.43-4.31-15.73-2.36c-1.51,0.53-2.93,1.29-4.2,2.26
			c-0.66,0.49-1.29,1.03-1.88,1.6c-0.58,0.61-1.13,1.25-1.63,1.92c-4.3,5.83-4.3,13.78,0,19.62c0.5,0.68,1.04,1.32,1.63,1.92
			c0.59,0.58,1.22,1.11,1.88,1.61c1.28,0.96,2.69,1.72,4.2,2.26c7.5,2.72,15.87-0.25,19.99-7.08c0.84-1.38,1.48-2.87,1.88-4.44
			c0.15-0.57,0.28-1.14,0.36-1.73c0.08-0.43,0.13-0.86,0.14-1.29l0.07-0.8C359.66,129.17,359.66,129.08,359.68,128.99
			c0.01,0.09,0.01,0.18,0,0.27c0,0.21,0,0.47,0,0.8c0,0.44-0.03,0.87-0.11,1.3c-0.06,0.59-0.17,1.18-0.33,1.75
			c-0.37,1.59-0.98,3.11-1.81,4.52c-1.09,1.88-2.55,3.52-4.27,4.84c-2.1,1.62-4.54,2.72-7.15,3.22c-2.99,0.56-6.07,0.31-8.93-0.72
			c-1.55-0.54-3.01-1.32-4.32-2.3c-0.68-0.51-1.32-1.06-1.93-1.64c-0.6-0.62-1.16-1.28-1.67-1.98c-4.43-5.99-4.43-14.17,0-20.16
			c1-1.39,2.22-2.61,3.61-3.61c1.31-0.98,2.77-1.75,4.31-2.29c2.86-1.04,5.95-1.28,8.95-0.71c4.79,0.92,8.95,3.85,11.42,8.06
			c0.83,1.4,1.44,2.93,1.81,4.52c0.15,0.57,0.26,1.16,0.33,1.75c0.07,0.43,0.11,0.87,0.11,1.3c0,0.33,0,0.6,0,0.8
			C359.7,128.8,359.7,128.89,359.68,128.99z"/>
		<path class="st1" d="M336.53,141.84c-0.27-0.02-0.54-0.09-0.79-0.21c-0.69-0.24-1.35-0.54-1.98-0.9
			c-4.3-2.56-6.84-7.27-6.61-12.27c0.03-0.73,0.13-1.46,0.29-2.18c0.04-0.27,0.13-0.53,0.25-0.77c0.09,0-0.21,1.13-0.21,2.95
			c-0.03,4.82,2.41,9.33,6.47,11.94C335.46,141.36,336.56,141.76,336.53,141.84z"/>
		<path class="st1" d="M340.33,143.16c0,0.13-0.26,0.2-0.55,0.16s-0.51-0.16-0.49-0.3s0.26-0.2,0.54-0.16
			C340.11,142.9,340.33,143.06,340.33,143.16z"/>
		<path class="st6" d="M402.15,128.99c-0.01-0.09-0.01-0.18,0-0.27c0-0.21,0-0.47-0.06-0.8c-0.01-0.43-0.06-0.87-0.15-1.29
			c-0.08-0.58-0.2-1.16-0.35-1.73c-0.96-3.65-3.12-6.88-6.14-9.15c-4.5-3.42-10.43-4.31-15.73-2.36c-1.51,0.53-2.93,1.29-4.2,2.26
			c-0.66,0.49-1.29,1.03-1.88,1.6c-0.58,0.61-1.13,1.25-1.63,1.92c-4.3,5.83-4.3,13.78,0,19.62c0.5,0.68,1.04,1.32,1.63,1.92
			c0.59,0.58,1.22,1.11,1.88,1.61c1.28,0.96,2.69,1.72,4.2,2.26c7.5,2.72,15.87-0.25,19.99-7.08c0.84-1.38,1.48-2.87,1.88-4.44
			c0.16-0.57,0.27-1.14,0.35-1.73c0.09-0.42,0.14-0.86,0.15-1.29c0-0.33,0.05-0.59,0.06-0.8
			C402.13,129.17,402.13,129.08,402.15,128.99c0.01,0.09,0.01,0.18,0,0.27c0,0.21,0,0.47,0,0.8c0,0.44-0.04,0.87-0.11,1.3
			c-0.06,0.59-0.17,1.18-0.33,1.75c-0.37,1.59-0.98,3.11-1.81,4.52c-1.09,1.88-2.55,3.53-4.28,4.84c-2.09,1.62-4.54,2.72-7.14,3.22
			c-2.99,0.56-6.07,0.31-8.93-0.72c-1.55-0.54-3.01-1.32-4.32-2.3c-0.68-0.51-1.33-1.06-1.93-1.64c-0.6-0.62-1.16-1.28-1.67-1.98
			c-4.43-5.99-4.43-14.17,0-20.16c1-1.39,2.22-2.61,3.61-3.61c1.31-0.98,2.77-1.75,4.31-2.29c2.86-1.04,5.95-1.28,8.95-0.71
			c4.79,0.92,8.95,3.85,11.42,8.06c0.83,1.4,1.44,2.93,1.81,4.52c0.15,0.57,0.26,1.16,0.33,1.75c0.07,0.43,0.11,0.87,0.11,1.3
			c0,0.33,0,0.6,0,0.8C402.17,128.8,402.16,128.89,402.15,128.99z"/>
		<path class="st1" d="M373.14,138.22c0,0-0.22-0.21-0.52-0.65c-0.42-0.63-0.78-1.3-1.09-1.99c-2.13-4.65-1.96-10.03,0.46-14.54
			c0.36-0.67,0.78-1.31,1.25-1.92c0.16-0.23,0.35-0.44,0.56-0.61c0.07,0.05-0.66,0.98-1.48,2.71c-1.07,2.21-1.67,4.62-1.76,7.08
			c-0.07,2.46,0.38,4.9,1.3,7.17C372.54,137.2,373.23,138.18,373.14,138.22z"/>
		<path class="st1" d="M375.1,140.45c-0.1,0.09-0.38-0.07-0.63-0.36s-0.38-0.59-0.28-0.68c0.1-0.09,0.38,0.08,0.63,0.37
			C375.08,140.07,375.2,140.38,375.1,140.45z"/>
		<path class="st9" d="M289.51,205.57l24.67-6.69c0,0,9.65,23.11,31.35,22.9c23.77-0.23,21.43-21.6,21.43-21.6l43.84,7.08l6.2,75.05
			c0,0-3.68,66.8-10.3,81.8l10.3,24.29H271.66l-2.34-172.52L289.51,205.57z"/>
		<path class="st1" d="M376.4,306.31c1.31-0.8,2.71-1.07,3.79-1.65c1.08-0.59,2.71-0.35,3.01,0.8c0.38,1.3-1.09,2.33-2.33,2.89
			c2.85,1.36,6.73-1.64,9.18,0.34c1.61,1.3,1.23,4.03-0.25,5.47c-1.48,1.44-3.61,1.88-5.7,2.11c-2.09,0.23-4.18,0.37-5.99,1.37
			c-0.9,0.52-1.81,1.55-1.51,2.58c0.56,1.74,3.81,1.37,4.21,3.16c0.27,1.21-1.08,2.11-2.2,2.62l-12.33,5.56
			c-1.04,0.6-2.22,0.91-3.42,0.9c-1.24-0.06-2.22-1.06-2.26-2.3c0.13-1.17,1.37-1.89,2.54-2.06c1.17-0.03,2.34-0.14,3.49-0.35
			c1.12-0.34,2.14-1.51,1.73-2.61c-0.52-1.36-2.47-1.25-3.88-0.9l-13.09,3.48c-0.94,0.34-1.95,0.42-2.94,0.23
			c-1-0.26-1.62-1.26-1.4-2.27c0.22-0.47,0.57-0.87,1-1.15c3.13-2.35,6.75-3.97,10.58-4.74c1.47-0.17,2.9-0.58,4.24-1.21
			c1.28-0.73,2.29-2.2,1.93-3.61c-2.7,0.98-5.51,1.65-8.36,1.99c-1.01,0.13-2.35,0-2.64-0.98c-0.29-0.98,0.81-1.81,1.76-2.3
			l15.24-7.51c1.29-0.63,2.77-1.28,4.13-0.8L376.4,306.31z"/>
		<path class="st1" d="M317.15,354.8c1.32-0.8,2.71-1.07,3.79-1.65c1.08-0.59,2.71-0.35,3.02,0.8c0.38,1.31-1.09,2.34-2.34,2.9
			c2.85,1.36,6.73-1.64,9.19,0.34c1.6,1.3,1.22,4.03-0.26,5.47c-1.48,1.44-3.61,1.88-5.69,2.11c-2.08,0.23-4.19,0.37-6,1.37
			c-0.9,0.52-1.81,1.55-1.51,2.58c0.56,1.74,3.81,1.37,4.21,3.16c0.27,1.21-1.07,2.11-2.2,2.61l-12.34,5.57
			c-1.04,0.59-2.22,0.9-3.42,0.9c-1.18-0.12-2.38-1.11-2.25-2.3c0.13-1.18,1.37-1.89,2.53-2.06c1.17-0.03,2.34-0.14,3.49-0.35
			c1.12-0.34,2.15-1.51,1.73-2.61c-0.51-1.36-2.46-1.25-3.87-0.9l-13.1,3.48c-0.94,0.34-1.95,0.42-2.93,0.23
			c-1.01-0.24-1.64-1.23-1.45-2.24c0.22-0.47,0.57-0.87,1.01-1.15c3.13-2.35,6.74-3.97,10.57-4.74c1.47-0.17,2.9-0.58,4.24-1.21
			c1.28-0.73,2.3-2.2,1.94-3.61c-2.7,0.98-5.51,1.64-8.36,1.99c-1.02,0.13-2.35,0-2.65-0.98c-0.3-0.98,0.82-1.81,1.76-2.3
			l15.24-7.51c1.29-0.63,2.77-1.29,4.13-0.8L317.15,354.8z"/>
		<path class="st1" d="M385.31,361.41c1.32-0.8,2.71-1.07,3.79-1.66c1.08-0.6,2.71-0.34,3.02,0.8c0.38,1.31-1.09,2.34-2.33,2.9
			c2.85,1.36,6.73-1.64,9.18,0.34c1.6,1.3,1.23,4.03-0.26,5.47c-1.49,1.44-3.61,1.87-5.69,2.11c-2.08,0.24-4.18,0.37-5.99,1.37
			c-0.95,0.52-1.81,1.55-1.51,2.58c0.56,1.74,3.8,1.36,4.21,3.15c0.27,1.21-1.08,2.11-2.2,2.62l-12.33,5.57
			c-1.05,0.59-2.23,0.9-3.43,0.9c-1.24-0.06-2.22-1.07-2.25-2.3c0.12-1.17,1.37-1.88,2.54-2.05c1.17-0.03,2.34-0.14,3.49-0.35
			c1.12-0.34,2.14-1.52,1.73-2.61c-0.52-1.36-2.47-1.25-3.88-0.9l-13.09,3.48c-0.94,0.34-1.96,0.42-2.94,0.23
			c-1.01-0.23-1.64-1.23-1.44-2.24c0.22-0.47,0.57-0.87,1-1.15c3.13-2.34,6.75-3.96,10.58-4.73c1.47-0.18,2.9-0.59,4.24-1.21
			c1.27-0.73,2.29-2.2,1.93-3.61c-2.7,0.98-5.5,1.65-8.36,2c-1.02,0.12-2.35,0-2.64-0.98c-0.29-0.98,0.81-1.81,1.76-2.3l15.23-7.51
			c1.3-0.64,2.77-1.29,4.14-0.8L385.31,361.41z"/>
		<path class="st1" d="M326.46,275.47c1.32-0.8,2.71-1.07,3.79-1.65c1.08-0.59,2.71-0.34,3.02,0.8c0.38,1.3-1.1,2.33-2.34,2.89
			c2.85,1.37,6.73-1.64,9.18,0.34c1.61,1.3,1.23,4.04-0.25,5.47c-1.48,1.43-3.61,1.88-5.7,2.12c-2.09,0.24-4.18,0.37-5.99,1.36
			c-0.9,0.52-1.81,1.55-1.51,2.58c0.56,1.75,3.81,1.37,4.21,3.16c0.27,1.21-1.07,2.11-2.2,2.62l-12.34,5.56
			c-1.04,0.59-2.22,0.9-3.42,0.9c-1.24-0.07-2.22-1.07-2.26-2.3c0.13-1.17,1.38-1.88,2.54-2.05c1.17-0.03,2.34-0.15,3.49-0.35
			c1.12-0.35,2.14-1.52,1.73-2.62c-0.52-1.36-2.46-1.25-3.87-0.9l-13.1,3.47c-0.94,0.34-1.95,0.42-2.94,0.23
			c-1-0.24-1.64-1.23-1.44-2.24c0.22-0.47,0.57-0.87,1.01-1.15c3.13-2.34,6.74-3.96,10.57-4.74c1.47-0.18,2.9-0.6,4.25-1.23
			c1.35-0.67,2.13-2.12,1.94-3.61c-2.7,0.98-5.51,1.64-8.37,1.99c-1.01,0.13-2.35,0-2.64-0.97c-0.29-0.97,0.81-1.81,1.76-2.3
			l15.25-7.5c1.29-0.64,2.77-1.29,4.13-0.8L326.46,275.47z"/>
		<path class="st9" d="M476.99,329.03c-5.11-18.07-16.92-46.63-21.69-57.56c-4.76-10.92-21.81-44.1-21.81-44.1
			s-8.61-17.47-24.4-20.37l-5.78,66.93l-16.5-15.6c0,0-32.21,23.24-31.67,32.6l39.12,41.25c0,0,7.87,17.32,23.62,29.13
			c15.75,11.81,16.92,19.68,30.31,18.88c13.38-0.8,10.63,3.94,18.89-9.04C475.35,358.19,482.11,347.14,476.99,329.03z"/>
		<path class="st3" d="M377.42,309.61c-0.07,0.05-0.81-1.18-2.3-2.94c-1.98-2.25-4.07-4.4-6.28-6.42c-2.21-2.05-4.27-4.28-6.14-6.65
			c-0.7-0.9-1.25-1.68-1.6-2.22c-0.21-0.28-0.38-0.58-0.52-0.9c0.25,0.22,0.47,0.48,0.66,0.76c0.4,0.51,0.98,1.24,1.72,2.12
			c1.93,2.3,4,4.47,6.2,6.51c2.22,2.04,4.3,4.23,6.22,6.56c0.56,0.72,1.09,1.47,1.57,2.25C377.14,308.97,377.3,309.28,377.42,309.61
			z"/>
		<path class="st3" d="M385.52,308.1c-0.33-0.2-0.63-0.44-0.9-0.71c-0.54-0.48-1.32-1.19-2.25-2.11c-1.87-1.81-4.38-4.39-7-7.37
			c-2.62-2.98-4.84-5.83-6.39-7.92c-0.78-1.05-1.39-1.91-1.81-2.51c-0.23-0.3-0.43-0.62-0.6-0.97c0.28,0.26,0.53,0.55,0.74,0.86
			l1.91,2.42c1.61,2.04,3.87,4.83,6.48,7.81c2.61,2.98,5.08,5.59,6.89,7.45l2.14,2.21C385.02,307.52,385.28,307.8,385.52,308.1z"/>
		<path class="st3" d="M393.23,304c-0.32-0.21-0.63-0.45-0.9-0.72c-0.57-0.49-1.38-1.21-2.39-2.11c-1.99-1.81-4.7-4.36-7.61-7.23
			c-2.91-2.87-5.48-5.58-7.3-7.55c-0.9-0.99-1.64-1.81-2.13-2.38c-0.27-0.28-0.51-0.58-0.73-0.9c0.33,0.23,0.63,0.5,0.9,0.8
			l2.23,2.26c1.89,1.92,4.52,4.57,7.4,7.45c2.88,2.88,5.58,5.48,7.5,7.34l2.29,2.22C392.76,303.42,393.01,303.7,393.23,304z"/>
		<path class="st3" d="M396.67,295.44c0,0-0.29-0.21-0.75-0.66l-1.91-1.9l-6.33-6.33l-6.38-6.27l-1.92-1.92
			c-0.25-0.22-0.48-0.47-0.67-0.75c0.29,0.17,0.56,0.38,0.8,0.61c0.49,0.42,1.17,1.04,2.02,1.81c1.69,1.55,3.99,3.72,6.48,6.18
			c2.48,2.46,4.68,4.74,6.24,6.42c0.79,0.84,1.41,1.53,1.81,2.01C396.3,294.89,396.5,295.16,396.67,295.44z"/>
		<path class="st3" d="M398.53,287.25c0.11,0.23,0.18,0.47,0.22,0.72l0.08,0.33l-0.22-0.26c-1.06-1.26-3.85-4.83-7.35-8.85
			c-2.21-2.55-4.29-4.8-5.81-6.42l-1.81-1.92c-0.24-0.22-0.44-0.47-0.61-0.75c0.27,0.18,0.52,0.38,0.74,0.61
			c0.46,0.42,1.12,1.04,1.91,1.81c1.58,1.56,3.7,3.79,5.93,6.33c2.54,2.88,4.91,5.89,7.11,9.04l-0.14,0.05
			C398.53,287.72,398.52,287.48,398.53,287.25z"/>
		<path class="st3" d="M404.91,284.34c-0.25-0.28-0.48-0.58-0.67-0.9c-0.4-0.6-0.99-1.45-1.73-2.49
			c-3.88-5.43-8.44-10.36-13.55-14.65c-0.98-0.82-1.81-1.47-2.35-1.92c-0.31-0.21-0.59-0.46-0.84-0.74
			c0.34,0.16,0.66,0.36,0.95,0.59c0.6,0.41,1.44,1.02,2.45,1.81c2.64,2.08,5.11,4.36,7.39,6.82c2.28,2.47,4.37,5.1,6.25,7.89
			c0.71,1.08,1.26,1.95,1.62,2.58C404.63,283.64,404.8,283.98,404.91,284.34z"/>
		<path class="st1" d="M449.24,308c1.32-0.8,2.71-1.08,3.79-1.66c1.08-0.59,2.71-0.34,3.02,0.8c0.38,1.3-1.09,2.34-2.33,2.9
			c2.84,1.36,6.72-1.64,9.18,0.34c1.6,1.29,1.22,4.03-0.26,5.47s-3.61,1.87-5.69,2.11s-4.19,0.37-6,1.4
			c-0.95,0.52-1.81,1.55-1.52,2.58c0.57,1.74,3.81,1.36,4.22,3.15c0.26,1.21-1.08,2.11-2.2,2.62l-12.33,5.56
			c-1.05,0.6-2.23,0.91-3.43,0.9c-1.18-0.13-2.38-1.11-2.25-2.3c0.13-1.19,1.37-1.88,2.53-2.05c1.17-0.03,2.34-0.15,3.5-0.35
			c1.12-0.34,2.14-1.52,1.73-2.61c-0.51-1.37-2.46-1.26-3.87-0.9l-13.09,3.47c-0.94,0.34-1.95,0.42-2.94,0.23
			c-1.01-0.23-1.64-1.23-1.44-2.24c0.21-0.47,0.56-0.87,1-1.15c3.13-2.34,6.74-3.96,10.57-4.73c1.47-0.18,2.9-0.59,4.24-1.21
			c1.28-0.73,2.3-2.2,1.94-3.61c-2.7,0.98-5.51,1.65-8.36,2c-1.02,0.12-2.35,0-2.65-0.98s0.82-1.81,1.81-2.3l15.23-7.51
			c1.3-0.64,2.77-1.29,4.13-0.8L449.24,308z"/>
		<path class="st3" d="M437.74,378.3c0,0-0.32-0.23-0.9-0.72c-0.59-0.49-1.48-1.22-2.61-2.17l-9.89-8.29l-7.08-5.94
			c-2.84-2.29-5.55-4.72-8.13-7.3c-2.87-2.99-5.5-6.19-7.88-9.59c-2.68-3.76-5.05-7.73-7.08-11.88v0.05l-40.3-41.65l-0.09-0.09
			v-0.12c0.55-2.56,2.1-4.75,3.68-6.85c1.68-2.09,3.49-4.07,5.42-5.94c3.8-3.74,7.8-7.17,11.8-10.4c4-3.23,8.03-6.33,12.04-9.14
			l0.15-0.11l0.14,0.14c5.54,5.28,10.84,10.44,16.01,15.3c1.29,1.22,2.58,2.42,3.88,3.55c1.31,1.12,2.52,2.35,3.61,3.69
			c0.28,0.31,0.57,0.61,0.9,0.9c0.31,0.28,0.63,0.54,0.97,0.78c0.66,0.52,1.29,1.08,1.88,1.68c1.17,1.19,2.2,2.47,3.22,3.71
			s2.01,2.47,3.11,3.61c1.06,1.09,2.26,2.05,3.56,2.84c1.28,0.79,2.62,1.45,3.88,2.22c1.24,0.76,2.4,1.64,3.45,2.64
			c1.05,0.97,2.01,1.97,2.96,2.94c0.96,0.97,1.87,1.95,2.71,2.94c1.69,1.87,3.05,4.01,4.03,6.33c1.51,4.01,2.22,8.28,2.11,12.57
			c0,3.75-0.3,6.95-0.42,9.56c-0.13,2.61-0.17,4.62-0.15,5.98c0,0.67,0,1.18,0.05,1.55c0.05,0.36,0,0.53,0,0.53
			s-0.08-0.71-0.14-2.08c-0.05-1.36,0-3.38,0.08-5.99c0.08-2.61,0.35-5.81,0.34-9.55c0.09-4.25-0.64-8.48-2.15-12.46
			c-1.75-4.45-5.68-8.13-9.68-12.05c-1.04-0.98-2.18-1.85-3.41-2.59c-1.24-0.75-2.58-1.42-3.88-2.21c-1.32-0.81-2.53-1.77-3.61-2.88
			c-1.1-1.12-2.12-2.36-3.14-3.61c-1.01-1.26-2.05-2.5-3.2-3.67c-0.57-0.58-1.17-1.13-1.81-1.64c-0.32-0.24-0.68-0.5-0.99-0.8
			c-0.32-0.3-0.61-0.61-0.9-0.9c-1.09-1.31-2.3-2.52-3.61-3.61c-1.31-1.15-2.59-2.34-3.89-3.56c-5.18-4.85-10.49-10.01-16.02-15.28
			h0.29c-4,2.85-8.02,5.9-12.02,9.13c-3.99,3.23-7.99,6.64-11.75,10.37c-1.91,1.85-3.7,3.82-5.36,5.9
			c-1.57,2.06-3.08,4.24-3.61,6.63l-0.06-0.2l40.25,41.69l0,0l0,0c2.01,4.13,4.35,8.09,7,11.84c2.38,3.4,5.01,6.62,7.88,9.61
			c2.55,2.58,5.24,5.02,8.05,7.31l7.04,5.98l9.82,8.37l2.58,2.21C437.45,378.03,437.74,378.3,437.74,378.3z"/>
		<path class="st3" d="M460.97,343.12c-0.12-0.49-0.21-0.99-0.25-1.5c-0.14-1.05-0.31-2.44-0.52-4.11c-0.22-1.67-0.45-3.82-0.71-6.1
			c-0.14-1.15-0.24-2.36-0.47-3.61c-0.21-1.25-0.67-2.45-1.35-3.52c-1.47-2.17-3.72-3.49-5.65-4.73c-1.92-1.25-3.73-2.3-5.24-3.17
			l-3.61-2.05c-0.45-0.23-0.89-0.49-1.31-0.78c0.48,0.17,0.95,0.37,1.39,0.62c0.9,0.42,2.14,1.08,3.68,1.92s3.34,1.88,5.31,3.1
			s4.24,2.54,5.8,4.83c0.72,1.12,1.2,2.39,1.41,3.7c0.23,1.26,0.33,2.47,0.45,3.61c0.23,2.28,0.43,4.35,0.61,6.11
			s0.27,3.07,0.37,4.13C460.96,342.08,460.99,342.6,460.97,343.12z"/>
		<path class="st3" d="M443.6,277.05c-0.17,0.3-0.38,0.58-0.62,0.83c-0.43,0.52-1.07,1.25-1.88,2.12c-2.12,2.29-4.35,4.47-6.69,6.53
			c-2.34,2.07-4.78,4.01-7.31,5.83c-0.77,0.57-1.66,0.98-2.59,1.2c-0.26,0.05-0.52,0.07-0.79,0.06c-0.09,0.01-0.18,0.01-0.27,0
			c0-0.05,0.38,0,1.01-0.2c0.89-0.28,1.71-0.72,2.44-1.29c1.9-1.44,4.52-3.51,7.23-5.91c2.71-2.4,5.09-4.72,6.76-6.41l1.92-2.02
			C443.04,277.52,443.31,277.26,443.6,277.05z"/>
		<path class="st3" d="M426.66,245.96c-0.01,0.16-0.04,0.31-0.09,0.46c-0.07,0.3-0.18,0.73-0.33,1.29c-0.31,1.11-0.79,2.71-1.4,4.69
			c-1.2,3.96-3.09,9.36-4.52,15.49c-1.16,5.25-1.65,10.62-1.45,15.99c0.06,1.62,0.2,3.24,0.43,4.85c0.17,1.15,0.29,1.81,0.25,1.81
			c-0.07-0.14-0.11-0.29-0.14-0.44c-0.06-0.3-0.19-0.73-0.29-1.3c-0.3-1.61-0.5-3.24-0.59-4.88c-0.29-5.4,0.15-10.82,1.33-16.1
			c1.44-6.17,3.37-11.56,4.65-15.49c0.63-1.91,1.16-3.48,1.54-4.64l0.42-1.27C426.51,246.25,426.58,246.1,426.66,245.96z"/>
		<path class="st9" d="M289.51,205.57c0,0-22.79,6.86-32.09,17.3c-7.01,7.88-16.71,45.31-16.71,45.31s-24.46,92.48-23.86,99.64
			c0.6,7.16,13.12,19.27,22.07,23.86c8.95,4.59,23.86,9.54,41.16-11.94c9.62-11.94,18.98-23.22,23.49-33.6
			c2.22-5.43,3.36-11.24,3.35-17.11l29.26-33.6l-30.44-32.62l-26.85,34.61L289.51,205.57z"/>
		<path class="st3" d="M308.48,271.47c-0.22,0.32-0.47,0.63-0.75,0.9c-0.52,0.59-1.24,1.44-2.12,2.5c-1.81,2.12-4.12,5.15-6.75,8.47
			c-2.22,2.86-4.6,5.59-7.14,8.18c-0.98,0.98-1.81,1.74-2.41,2.24c-0.29,0.28-0.61,0.53-0.96,0.74c0.25-0.33,0.53-0.63,0.83-0.9
			c0.56-0.53,1.35-1.34,2.3-2.34c1.91-2,4.38-4.92,7-8.23c2.62-3.32,5.02-6.33,6.87-8.39c0.9-1.04,1.69-1.86,2.24-2.4
			C307.87,271.95,308.16,271.7,308.48,271.47z"/>
		<path class="st3" d="M310.8,277.47c-0.15,0.32-0.34,0.63-0.56,0.9c-0.38,0.57-0.96,1.38-1.69,2.37c-1.46,1.97-3.61,4.64-5.97,7.51
			c-2.36,2.87-4.64,5.42-6.26,7.23c-0.78,0.85-1.43,1.57-1.95,2.16c-0.23,0.27-0.48,0.52-0.76,0.75c0.17-0.33,0.38-0.63,0.62-0.9
			c0.42-0.54,1.05-1.31,1.81-2.26l6.15-7.35c2.4-2.87,4.52-5.49,6.07-7.42l1.81-2.27C310.29,277.93,310.53,277.69,310.8,277.47z"/>
		<path class="st3" d="M315.4,283.86c-0.16,0.29-0.36,0.56-0.59,0.8l-1.69,2.1c-1.43,1.81-3.35,4.25-5.48,6.99
			c-2.13,2.75-4.1,5.2-5.59,6.91c-0.75,0.86-1.36,1.55-1.81,2.01c-0.21,0.25-0.45,0.48-0.71,0.68c0.16-0.29,0.35-0.56,0.58-0.8
			c0.47-0.57,1.03-1.27,1.69-2.09c1.43-1.81,3.36-4.26,5.48-6.99c2.12-2.74,4.1-5.2,5.6-6.92c0.74-0.86,1.36-1.55,1.81-2
			C314.9,284.29,315.14,284.06,315.4,283.86z"/>
		<path class="st3" d="M321.27,290.94c-0.13,0.26-0.3,0.51-0.51,0.72c-0.34,0.43-0.86,1.06-1.51,1.81c-1.29,1.52-3.14,3.57-5.2,5.81
			l-5.29,5.74c-0.69,0.83-1.44,1.61-2.24,2.33c0.13-0.26,0.3-0.5,0.5-0.71c0.34-0.44,0.85-1.08,1.5-1.81
			c1.28-1.53,3.13-3.61,5.19-5.84l5.31-5.72C319.71,292.44,320.46,291.66,321.27,290.94z"/>
		<path class="st3" d="M325.46,294.37c-0.51,0.87-1.09,1.7-1.73,2.47c-1.13,1.48-2.71,3.49-4.52,5.67
			c-1.81,2.19-3.42,4.19-4.58,5.65c-0.6,0.81-1.24,1.59-1.93,2.32c0.48-0.89,1.04-1.73,1.66-2.52c1.09-1.51,2.71-3.54,4.52-5.75
			l4.65-5.58C324.12,295.83,324.76,295.07,325.46,294.37z"/>
		<path class="st3" d="M279.08,293.49c-0.05,0-0.15-0.58-0.48-1.59c-0.5-1.41-1.2-2.75-2.08-3.96c-1.32-1.79-2.86-3.41-4.57-4.83
			c-2.11-1.74-4.36-3.29-6.74-4.64c-4.35-2.43-8.88-4.52-13.55-6.26c-1.81-0.68-3.25-1.17-4.26-1.52c-0.53-0.15-1.06-0.34-1.56-0.57
			c0.14,0,0.29,0.03,0.42,0.07c0.28,0.07,0.68,0.17,1.19,0.33c1.03,0.29,2.52,0.74,4.33,1.38c4.72,1.66,9.28,3.72,13.64,6.16
			c2.4,1.36,4.67,2.94,6.79,4.72c1.71,1.46,3.23,3.13,4.52,4.98c0.87,1.25,1.55,2.63,1.99,4.09c0.12,0.4,0.2,0.81,0.25,1.22
			C279.02,293.2,279.06,293.35,279.08,293.49z"/>
		<path class="st1" d="M281.17,235.03c1.32-0.8,2.71-1.08,3.79-1.66c1.08-0.59,2.71-0.34,3.02,0.8c0.38,1.3-1.1,2.34-2.34,2.9
			c2.85,1.36,6.73-1.64,9.19,0.34c1.6,1.29,1.22,4.03-0.26,5.47c-1.48,1.44-3.61,1.87-5.7,2.11c-2.09,0.24-4.18,0.37-5.99,1.37
			c-0.9,0.52-1.81,1.55-1.51,2.58c0.56,1.74,3.81,1.36,4.21,3.15c0.27,1.21-1.07,2.11-2.2,2.62l-12.34,5.56
			c-1.04,0.59-2.22,0.9-3.42,0.9c-1.18-0.13-2.38-1.12-2.25-2.3c0.13-1.18,1.37-1.88,2.53-2.05c1.17-0.03,2.34-0.15,3.49-0.35
			c1.12-0.34,2.15-1.52,1.73-2.61c-0.51-1.37-2.46-1.26-3.87-0.9l-13.1,3.47c-0.94,0.34-1.95,0.42-2.93,0.23
			c-1.01-0.23-1.65-1.23-1.45-2.24c0.22-0.47,0.57-0.87,1.01-1.15c3.13-2.34,6.74-3.96,10.57-4.74c1.47-0.17,2.9-0.58,4.24-1.2
			c1.28-0.73,2.3-2.2,1.94-3.61c-2.7,0.98-5.51,1.64-8.36,1.99c-1.02,0.13-2.36,0-2.65-0.97c-0.29-0.97,0.81-1.81,1.76-2.3
			l15.24-7.51c1.29-0.64,2.77-1.29,4.13-0.8L281.17,235.03z"/>
		<path class="st1" d="M257.15,327.57c1.31-0.8,2.71-1.07,3.79-1.66c1.08-0.6,2.71-0.34,3.02,0.8c0.38,1.31-1.1,2.34-2.34,2.9
			c2.85,1.36,6.73-1.64,9.18,0.34c1.61,1.3,1.23,4.03-0.25,5.42c-1.48,1.39-3.61,1.87-5.7,2.11c-2.09,0.24-4.18,0.37-5.99,1.37
			c-0.9,0.52-1.81,1.55-1.51,2.58c0.56,1.74,3.81,1.36,4.21,3.16c0.27,1.21-1.07,2.11-2.2,2.61l-12.33,5.58
			c-1.04,0.59-2.22,0.9-3.42,0.9c-1.24-0.06-2.23-1.06-2.26-2.3c0.13-1.17,1.38-1.88,2.54-2.05c1.17-0.03,2.34-0.14,3.49-0.35
			c1.12-0.34,2.14-1.52,1.73-2.61c-0.52-1.36-2.46-1.25-3.88-0.9l-13.09,3.48c-0.94,0.34-1.96,0.42-2.94,0.23
			c-1-0.24-1.64-1.23-1.44-2.24c0.22-0.47,0.57-0.87,1.01-1.14c3.13-2.35,6.74-3.97,10.57-4.74c1.47-0.18,2.9-0.59,4.24-1.21
			c1.35-0.67,2.13-2.12,1.94-3.61c-2.7,0.98-5.51,1.64-8.37,1.99c-1.01,0.12-2.35,0-2.64-0.98c-0.29-0.98,0.81-1.81,1.76-2.3
			l15.24-7.51c1.29-0.64,2.77-1.29,4.13-0.8L257.15,327.57z"/>
		<path class="st3" d="M279.46,295.26c-0.07-0.19-0.13-0.38-0.17-0.57c-0.1-0.43-0.23-0.98-0.4-1.66c-0.35-1.5-0.84-3.61-1.43-6.12
			c-1.21-5.17-2.94-12.29-5.01-20.11c-2.07-7.83-4.08-14.87-5.57-19.96c-0.73-2.5-1.34-4.52-1.81-6.03
			c-0.19-0.68-0.34-1.22-0.47-1.64c-0.06-0.19-0.11-0.38-0.13-0.58c0.09,0.18,0.16,0.36,0.22,0.55c0.14,0.42,0.33,0.96,0.56,1.62
			c0.47,1.41,1.13,3.45,1.92,5.99c1.57,5.06,3.61,12.1,5.7,19.93c2.09,7.83,3.74,14.97,4.86,20.16c0.57,2.59,1.01,4.69,1.29,6.15
			c0.13,0.69,0.23,1.25,0.32,1.67C279.41,294.86,279.45,295.06,279.46,295.26z"/>
		<path class="st3" d="M240.04,350.19l0.16-0.52c0.13-0.35,0.3-0.9,0.52-1.53c0.47-1.34,1.17-3.32,2.2-5.82
			c1.24-3.08,2.81-6.01,4.68-8.75c2.22-3.22,5.51-6.25,9.14-9.55c3.63-3.3,7.01-7.54,10.6-12.13c3.59-4.59,7.31-9.63,11.28-14.94
			c3.97-5.3,8.13-10.92,12.59-16.69c4.45-5.77,9.15-11.75,14.37-17.6l0.16-0.19l0.17,0.19l16.73,18.01l13.35,14.46l0.15,0.16
			l-0.15,0.15c-5.48,6-10.73,11.9-15.67,17.67c-2.46,2.88-4.83,5.75-7.07,8.6c-0.57,0.71-1.11,1.43-1.64,2.15
			c-0.54,0.7-1.04,1.43-1.49,2.19c-0.87,1.51-1.56,3.11-2.06,4.77c-1.02,3.29-1.57,6.61-2.38,9.79c-0.38,1.57-0.86,3.11-1.45,4.61
			c-0.59,1.48-1.3,2.86-1.93,4.25c-2.45,5.08-5.24,10-8.33,14.72c-4.46,6.76-9.7,12.98-15.61,18.51l-1.47,1.36
			c-0.47,0.42-0.9,0.8-1.33,1.16c-0.82,0.72-1.53,1.32-2.11,1.81c-0.59,0.49-1.01,0.8-1.32,1.06l-0.46,0.34c0,0,0.14-0.14,0.43-0.38
			l1.29-1.09c0.58-0.46,1.27-1.08,2.09-1.81l1.31-1.17l1.46-1.38c5.85-5.59,11.04-11.84,15.47-18.61c3.07-4.72,5.82-9.63,8.25-14.71
			c0.63-1.38,1.35-2.77,1.92-4.22c0.57-1.49,1.04-3.02,1.42-4.57c0.79-3.15,1.34-6.49,2.37-9.8c0.5-1.69,1.2-3.33,2.08-4.86
			c0.47-0.77,0.97-1.52,1.52-2.23c0.53-0.72,1.08-1.45,1.64-2.16c2.24-2.87,4.62-5.74,7.08-8.63c4.92-5.78,10.17-11.69,15.67-17.69
			v0.31l-13.36-14.46l-16.67-18.01h0.34c-5.2,5.85-9.89,11.8-14.36,17.57s-8.64,11.36-12.65,16.66c-4.01,5.3-7.73,10.31-11.31,14.91
			c-3.59,4.6-6.97,8.87-10.68,12.14c-3.71,3.26-6.93,6.33-9.16,9.46c-1.87,2.72-3.46,5.62-4.72,8.67c-1.06,2.48-1.81,4.46-2.27,5.78
			c-0.24,0.66-0.43,1.17-0.56,1.52C240.13,350.01,240.04,350.19,240.04,350.19z"/>
		<path class="st3" d="M309.21,205.15c0.06,0.12,0.12,0.24,0.16,0.37l0.42,1.08c0.62,1.32,1.37,2.58,2.24,3.75
			c3.22,4.12,7.04,7.73,11.32,10.73h-0.05c2.95,1.01,6.18,2.03,9.67,2.89c3.64,0.93,7.37,1.48,11.12,1.63
			c5.58,0.16,11.12-0.99,16.17-3.37c4.11-1.97,7.62-5.01,10.15-8.8c1.71-2.55,2.88-5.43,3.42-8.45c0.1-0.53,0.16-1.01,0.2-1.44
			c0.04-0.42,0.08-0.77,0.08-1.05v-0.65c-0.01-0.07-0.01-0.15,0-0.23c0.08,1.13,0.02,2.27-0.16,3.39c-0.48,3.07-1.61,6.01-3.32,8.6
			c-2.53,3.89-6.07,7.01-10.24,9.04c-5.1,2.43-10.71,3.62-16.36,3.45c-3.79-0.15-7.55-0.71-11.22-1.66
			c-3.28-0.82-6.51-1.8-9.69-2.95l0,0l0,0c-4.3-3.03-8.11-6.71-11.28-10.92c-0.86-1.2-1.59-2.49-2.17-3.85
			c-0.15-0.46-0.27-0.83-0.36-1.11C309.25,205.46,309.22,205.31,309.21,205.15z"/>
		<path class="st8" d="M347.51,257.82c-1.26,2.31-1.03,5.14,0.57,7.23c2.68-1.91,5.15-4.1,7.36-6.54l0.58-0.59l1.88-5.38l-5.03-2.71
			l-4.67-0.61L347.51,257.82z"/>
		<path class="st8" d="M355.34,254.45c-1.18,1.99-2.03,4.14-2.54,6.4c-0.51,2.27-0.34,4.63,0.48,6.8c0.06,0.19,0.17,0.35,0.32,0.48
			c0.13,0.08,0.27,0.13,0.42,0.14l2.46,0.52c0.58-1.09,1.06-2.23,1.44-3.41"/>
		<path class="st7" d="M318.64,287.56c0,0,6.51-9.6,8.33-11.6c1.03-1.16,2.34-2.04,3.81-2.54c0,0,9.63-5.64,12.72-9.45
			c3.09-3.81,7.82-10.73,7.82-10.73l2.36-0.72l2.37,2.36c0,0-0.9,10.91,3.81,12.18l2.55-0.73v-20.89l-15.27-10.36l-11.99-6.33
			c0,0-8.72,15.63-11.27,17.99c-2.55,2.36-16.46,17.04-17.97,18.68C305.91,265.37,306.91,273.98,318.64,287.56z"/>
		<path class="st7" d="M321.27,223.01l20.71-8.13l25.83,9.79c0,0,10.76,26.54,12.06,28.58c1.3,2.04,7.05,8.37,7.05,8.37
			c-0.56,2.74-1.78,5.31-3.55,7.48c-2.56,3.18-5.23,6.72-7.58,8.37c0,0-10.78-5.11-12.06-10.3c-1.28-5.2-5.78-16.7-5.78-16.7
			l-3.83-7.23l-7.38-5.01l-7.87,1.12c0,0-1.04,5.01-4.88,3.7l-3.84-2.03l4.35-5.42c0,0-5.47,6.5-8.99,3.34l-1.29-1.49l4.26-3.7
			c0,0-4.08,2.96-5.38,0.74l4.08-7.43C327.18,227.06,320.77,227.28,321.27,223.01z"/>
		<path class="st8" d="M386.89,261.62c0,0-0.19-0.18-0.52-0.54l-1.5-1.63c-0.64-0.72-1.45-1.62-2.36-2.71
			c-0.46-0.53-0.96-1.11-1.46-1.74c-0.57-0.66-1.07-1.36-1.51-2.11c-1.62-3.3-3.31-7.4-5.31-12.13c-2.01-4.73-4.2-10.11-6.61-16.03
			l0.1,0.11l-25.8-9.8h0.15l-20.71,8.18l0.14-0.19c-0.08,0.62,0.03,1.25,0.32,1.81c0.34,0.54,0.82,0.97,1.39,1.25
			c1.23,0.56,2.58,0.83,3.93,0.8h0.41l-0.2,0.34l-2.39,4.36l-1.68,3.05v-0.21c0.23,0.38,0.62,0.63,1.06,0.68
			c0.47,0.05,0.95-0.01,1.39-0.16c0.92-0.31,1.8-0.76,2.59-1.33l0.29,0.36l-4.26,3.71v-0.33l1.29,1.49l0,0
			c0.64,0.55,1.47,0.83,2.31,0.78c0.85-0.08,1.68-0.35,2.41-0.79c1.48-0.88,2.81-2,3.93-3.31l0.35,0.29l-4.35,5.38l-0.06-0.33
			l3.84,2.04l0,0c0.53,0.18,1.1,0.23,1.65,0.14c0.54-0.11,1.03-0.38,1.42-0.77c0.77-0.82,1.29-1.83,1.53-2.93l0.05-0.14h0.14
			l7.86-1.11h0.08h0.06l7.37,5.02l0,0l0,0l3.82,7.23l0,0c1.87,4.89,3.5,9.34,4.76,13.31c0.31,0.99,0.61,1.96,0.84,2.9
			c0.12,0.45,0.26,0.9,0.42,1.34c0.19,0.4,0.4,0.8,0.64,1.17c0.95,1.31,2.08,2.48,3.35,3.47c1.77,1.39,3.64,2.64,5.6,3.74
			c0.67,0.38,1.18,0.65,1.54,0.84l0.52,0.29c0,0-0.19-0.07-0.55-0.24c-0.36-0.17-0.9-0.43-1.56-0.8c-1.99-1.06-3.88-2.29-5.67-3.67
			c-1.3-0.99-2.46-2.17-3.42-3.5c-0.25-0.39-0.48-0.79-0.68-1.21c-0.17-0.45-0.32-0.9-0.44-1.36c-0.24-0.9-0.55-1.89-0.86-2.88
			c-1.29-3.95-2.93-8.39-4.83-13.26l0,0l-3.85-7.23l0.06,0.06l-7.39-5h0.14l-7.86,1.12l0.17-0.17c-0.25,1.18-0.81,2.27-1.64,3.15
			c-0.45,0.45-1.02,0.76-1.64,0.9c-0.63,0.11-1.27,0.05-1.87-0.16l0,0l-3.84-2.04l-0.24-0.13l0.17-0.21l4.34-5.42l0.35,0.29
			c-1.16,1.35-2.53,2.51-4.07,3.42c-0.79,0.48-1.68,0.77-2.6,0.85c-0.97,0.06-1.92-0.26-2.65-0.9l0,0l-1.29-1.49l-0.15-0.17
			l0.17-0.15l4.26-3.71l0.3,0.37c-0.83,0.59-1.75,1.06-2.71,1.4c-0.51,0.17-1.05,0.23-1.59,0.18c-0.58-0.07-1.1-0.4-1.4-0.9
			l-0.06-0.12l0.06-0.12l1.68-3.05l2.4-4.36l0.21,0.34c-1.43,0.04-2.86-0.25-4.16-0.85c-0.66-0.31-1.21-0.81-1.58-1.44
			c-0.32-0.63-0.45-1.35-0.37-2.05v-0.14l0.14-0.05l20.72-8.13h0.08h0.08l25.72,9.93h0.08v0.08l6.55,16.05
			c1.98,4.73,3.61,8.86,5.21,12.14c0.43,0.74,0.92,1.44,1.47,2.1c0.5,0.63,0.98,1.22,1.44,1.76l2.33,2.71l1.45,1.67L386.89,261.62z"
			/>
		<path class="st8" d="M326.83,227.37c0.1-0.28,0.26-0.54,0.46-0.76c0.49-0.65,1.07-1.22,1.73-1.7c1.67-1.18,4.03-2.65,6.63-4.32
			c2.6-1.67,4.95-3.15,6.76-4.14c0.74-0.41,1.62-0.49,2.42-0.21c0.55,0.23,0.71,0.56,0.7,0.57c-0.23-0.16-0.49-0.3-0.76-0.4
			c-0.75-0.19-1.54-0.07-2.2,0.33c-1.71,1.03-4.05,2.61-6.66,4.24l-6.69,4.19C328.34,225.82,327.54,226.55,326.83,227.37z"/>
		<path class="st8" d="M357.96,227.06c-0.48-0.05-0.96-0.14-1.43-0.27c-0.9-0.21-2.21-0.54-3.81-1.02c-1.6-0.48-3.48-1.1-5.54-1.91
			c-0.99-0.52-2.1-0.77-3.22-0.72c-1.21,0.16-2.4,0.42-3.57,0.78c-1.16,0.34-2.27,0.86-3.26,1.55c-0.91,0.69-1.75,1.46-2.54,2.29
			c-1.55,1.55-2.95,2.97-4.16,4.11c-1.21,1.14-2.24,2.02-2.98,2.59c-0.37,0.28-0.67,0.5-0.9,0.62c-0.23,0.13-0.32,0.2-0.33,0.18
			c0.34-0.34,0.71-0.65,1.08-0.95c0.7-0.61,1.69-1.52,2.86-2.71c1.17-1.19,2.55-2.6,4.08-4.18c0.79-0.85,1.66-1.64,2.58-2.35
			c1.03-0.73,2.18-1.28,3.39-1.64c1.2-0.36,2.43-0.62,3.67-0.79c0.61-0.07,1.22-0.01,1.81,0.17c0.57,0.18,1.08,0.42,1.6,0.61
			c2.03,0.81,3.89,1.47,5.48,1.99s2.86,0.9,3.76,1.17C357.02,226.71,357.5,226.87,357.96,227.06z"/>
		<path class="st8" d="M360.58,235.33c-0.38-0.04-0.75-0.13-1.1-0.27l-2.95-0.9l-4.36-1.42l-2.56-0.85
			c-0.88-0.33-1.79-0.61-2.71-0.82c-1.82-0.23-3.67,0.11-5.29,0.98c-1.59,0.7-3.09,1.13-4.26,1.67c-1.26,0.6-2.4,1.42-3.35,2.44
			c0,0,0-0.1,0.15-0.26c0.17-0.23,0.34-0.44,0.53-0.65c0.72-0.75,1.58-1.37,2.52-1.81c1.18-0.59,2.71-1.05,4.23-1.76
			c0.83-0.38,1.68-0.68,2.57-0.9c0.97-0.26,1.99-0.3,2.98-0.12c0.95,0.23,1.89,0.51,2.8,0.85l2.56,0.9l4.32,1.51l2.89,1.07
			C359.92,235.06,360.26,235.18,360.58,235.33z"/>
		<path class="st3" d="M335.78,295.26c-0.16,0.04-0.33,0.07-0.5,0.07c-0.32,0-0.8,0.05-1.41,0.06c-1.74,0.03-3.48-0.11-5.19-0.42
			c-1.19-0.21-2.35-0.55-3.47-1c-1.28-0.55-2.45-1.33-3.46-2.3c-2.32-2.15-4.39-4.54-6.2-7.14c-1.97-2.71-3.83-5.29-5.35-7.78
			c-1.37-2.19-2.5-4.51-3.37-6.94c-0.58-1.64-0.95-3.36-1.08-5.1c-0.05-0.47-0.06-0.94-0.05-1.41c-0.02-0.16-0.02-0.33,0-0.5
			c0.05,0,0.05,0.68,0.19,1.89c0.2,1.71,0.61,3.39,1.21,5c0.91,2.39,2.06,4.68,3.43,6.83c1.53,2.45,3.4,5.02,5.36,7.73
			c1.79,2.57,3.84,4.94,6.11,7.09c1.85,1.75,4.19,2.9,6.7,3.3c1.69,0.34,3.4,0.52,5.12,0.56
			C335.09,295.25,335.77,295.23,335.78,295.26z"/>
		<path class="st3" d="M386.84,258.38c0.07,0.15,0.11,0.31,0.13,0.47c0.09,0.46,0.13,0.94,0.14,1.41c-0.02,1.74-0.43,3.45-1.19,5.01
			c-1.14,2.3-2.57,4.44-4.26,6.37c-1.81,2.22-3.96,4.57-6.33,6.92c-2.37,2.35-4.73,4.45-6.97,6.26c-1.95,1.67-4.03,3.18-6.22,4.52
			c-1.49,0.89-3.16,1.45-4.89,1.64c-0.47,0.05-0.94,0.05-1.41,0c-0.17-0.01-0.33-0.04-0.49-0.09c0-0.05,0.68,0.07,1.88-0.05
			c1.68-0.25,3.3-0.84,4.74-1.74c2.14-1.35,4.18-2.86,6.1-4.52c2.21-1.81,4.56-3.94,6.91-6.26c2.35-2.32,4.52-4.66,6.33-6.87
			c1.68-1.89,3.12-3.98,4.28-6.23c0.77-1.52,1.22-3.19,1.32-4.89C386.95,259.05,386.79,258.39,386.84,258.38z"/>
		<path class="st3" d="M356.4,309.3c-0.05,0.17-0.13,0.33-0.23,0.48l-0.73,1.33c-0.63,1.15-1.62,2.77-2.89,4.75
			c-1.27,1.98-2.87,4.28-4.73,6.77c-1.86,2.48-4.05,5.13-6.44,7.81c-2.39,2.67-4.83,5.08-7.1,7.23c-2.27,2.15-4.4,3.95-6.23,5.42
			c-1.83,1.47-3.35,2.62-4.44,3.37l-1.24,0.9c-0.14,0.11-0.29,0.2-0.45,0.28c0.12-0.13,0.25-0.25,0.4-0.35l1.18-0.9
			c1.05-0.8,2.53-1.98,4.33-3.48c1.8-1.5,3.9-3.35,6.16-5.48s4.64-4.56,7.04-7.23c2.4-2.67,4.52-5.3,6.44-7.75
			c1.92-2.45,3.51-4.73,4.81-6.69c1.3-1.95,2.33-3.55,3.02-4.67c0.33-0.52,0.59-0.9,0.8-1.27
			C356.18,309.63,356.28,309.46,356.4,309.3z"/>
		<path class="st1" d="M409.57,220.97c1.31-0.8,2.71-1.07,3.79-1.65c1.08-0.59,2.71-0.35,3.01,0.8c0.38,1.3-1.09,2.33-2.33,2.89
			c2.85,1.37,6.73-1.64,9.18,0.34c1.61,1.3,1.23,4.03-0.25,5.47c-1.48,1.44-3.61,1.88-5.7,2.11s-4.18,0.37-5.99,1.37
			c-0.9,0.52-1.81,1.55-1.51,2.58c0.56,1.74,3.81,1.37,4.21,3.16c0.27,1.21-1.08,2.11-2.2,2.62l-12.32,5.56
			c-1.04,0.6-2.22,0.91-3.42,0.9c-1.24-0.06-2.22-1.06-2.26-2.3c0.13-1.17,1.37-1.89,2.54-2.06c1.17-0.03,2.34-0.14,3.49-0.35
			c1.12-0.34,2.14-1.51,1.73-2.61c-0.52-1.36-2.47-1.25-3.88-0.9l-13.09,3.48c-0.94,0.34-1.95,0.42-2.94,0.23
			c-1-0.24-1.63-1.23-1.44-2.24c0.22-0.47,0.57-0.87,1-1.15c3.13-2.34,6.75-3.96,10.58-4.74c1.47-0.17,2.9-0.58,4.24-1.21
			c1.28-0.73,2.29-2.2,1.93-3.61c-2.7,0.98-5.51,1.65-8.36,1.99c-1.01,0.13-2.35,0-2.64-0.98c-0.29-0.98,0.81-1.81,1.81-2.3
			l15.22-7.5c1.29-0.63,2.77-1.28,4.13-0.8L409.57,220.97z"/>
		<path class="st3" d="M168.7,362.82v0.9h-4.34v-0.73l2.34-2.21c0.57-0.55,0.67-0.9,0.67-1.22c0-0.54-0.37-0.85-1.09-0.85
			c-0.53-0.03-1.04,0.2-1.37,0.61l-0.77-0.59c0.55-0.66,1.38-1.02,2.24-0.98c1.27,0,2.1,0.64,2.1,1.69
			c-0.01,0.74-0.37,1.42-0.98,1.85l-1.57,1.5L168.7,362.82z"/>
		<path class="st3" d="M169.3,359.9c0-0.38,0.32-0.68,0.7-0.68c0.38,0.01,0.68,0.32,0.68,0.7c0,0.38-0.31,0.68-0.69,0.68
			c-0.37,0.01-0.68-0.28-0.69-0.65C169.3,359.93,169.3,359.91,169.3,359.9z M169.3,363.1c0-0.38,0.31-0.69,0.69-0.69
			c0.38,0,0.69,0.31,0.69,0.69c0,0.38-0.31,0.69-0.69,0.69C169.6,363.79,169.3,363.48,169.3,363.1z"/>
		<path class="st3" d="M173.41,357.85v5.88h-1.08v-4.97h-1.25v-0.9L173.41,357.85z"/>
		<path class="st3" d="M179.87,362.4h-1.08v1.34h-1.06v-1.34h-3.23v-0.75l2.9-3.8h1.17l-2.71,3.61h1.92v-1.17h1.03v1.18h1.06V362.4z
			"/>
		<rect x="188.33" y="361.2" class="st1" width="285.99" height="1.45"/>
		<rect x="184.81" y="359.64" class="st10" width="99.09" height="3.86"/>
		<path class="st10" d="M290.38,361.92c0,2.66-2.16,4.83-4.83,4.83s-4.83-2.16-4.83-4.83c0-2.66,2.16-4.83,4.83-4.83l0,0
			C288.22,357.1,290.38,359.26,290.38,361.92z"/>
		<path class="st3" d="M482.25,362.35c-0.02,1.12-0.95,2-2.07,1.98c-0.05,0-0.1,0-0.15-0.01c-1.65,0-2.63-1.07-2.63-3.03
			c0-1.96,1.22-3.23,2.98-3.23c0.56-0.02,1.11,0.12,1.6,0.39l-0.42,0.85c-0.35-0.21-0.74-0.31-1.15-0.29
			c-1.15,0-1.87,0.71-1.87,2.09l0,0c0.42-0.44,1.02-0.67,1.63-0.63c1.04-0.1,1.97,0.66,2.08,1.7
			C482.25,362.23,482.25,362.29,482.25,362.35z M481.16,362.4c0-0.63-0.48-1.03-1.21-1.03c-0.61-0.07-1.16,0.37-1.23,0.98
			c0,0.02,0,0.04-0.01,0.06c0,0.58,0.45,1.03,1.27,1.03c0.58,0.07,1.11-0.34,1.18-0.92C481.15,362.48,481.16,362.44,481.16,362.4
			L481.16,362.4z"/>
		<path class="st3" d="M482.8,360.27c0-0.39,0.32-0.71,0.71-0.71c0.39,0,0.71,0.32,0.71,0.71c0,0.39-0.32,0.71-0.71,0.71
			C483.12,360.98,482.8,360.66,482.8,360.27z M482.8,363.57c0-0.39,0.32-0.71,0.71-0.71c0.39,0,0.71,0.32,0.71,0.71l0,0
			c0,0.39-0.32,0.71-0.71,0.71C483.12,364.29,482.8,363.97,482.8,363.57z"/>
		<path class="st3" d="M484.95,361.2c0-2,1.09-3.13,2.54-3.13s2.54,1.13,2.54,3.13c0,2-1.09,3.13-2.54,3.13
			S484.95,363.19,484.95,361.2z M488.89,361.2c0-1.46-0.57-2.14-1.4-2.14c-0.83,0-1.4,0.68-1.4,2.14s0.57,2.14,1.4,2.14
			C488.32,363.34,488.89,362.66,488.89,361.2z"/>
		<path class="st3" d="M490.79,361.2c0-2,1.09-3.13,2.54-3.13c1.45,0,2.54,1.13,2.54,3.13c0,2-1.09,3.13-2.54,3.13
			C491.88,364.32,490.79,363.19,490.79,361.2z M494.73,361.2c0-1.46-0.57-2.14-1.4-2.14c-0.83,0-1.4,0.68-1.4,2.14
			s0.57,2.14,1.4,2.14C494.16,363.34,494.73,362.66,494.73,361.2L494.73,361.2z"/>
		<polygon class="st3" points="505.84,360.66 504.63,360.66 504.63,357.19 508.11,357.19 508.11,358.39 505.84,358.39 		"/>
		<polygon class="st3" points="508.11,365.21 504.63,365.21 504.63,361.73 505.84,361.73 505.84,364 508.11,364 		"/>
		<polygon class="st3" points="513.66,365.21 510.18,365.21 510.18,364 512.46,364 512.46,361.73 513.66,361.73 		"/>
		<polygon class="st3" points="513.66,360.66 512.46,360.66 512.46,358.39 510.18,358.39 510.18,357.19 513.66,357.19 		"/>
		<circle class="st2" cx="181.61" cy="126.34" r="7.41"/>
		<path class="st3" d="M189.01,126.33c-0.05,0,0-0.67-0.33-1.81c-0.73-2.73-2.97-4.79-5.76-5.3c-1.27-0.23-2.58-0.11-3.79,0.33
			c-1.33,0.49-2.49,1.36-3.33,2.51c-1.87,2.52-1.87,5.96,0,8.48c0.84,1.15,1.99,2.02,3.33,2.51c2.3,0.85,4.88,0.48,6.84-0.99
			c1.32-0.98,2.28-2.38,2.71-3.98c0.3-1.12,0.27-1.81,0.33-1.81c0.02,0.16,0.02,0.31,0,0.47c0,0.46-0.05,0.91-0.16,1.36
			c-0.67,2.87-2.97,5.08-5.86,5.64c-2.88,0.56-5.82-0.59-7.56-2.95c-2-2.68-2-6.35,0-9.04c0.44-0.63,0.99-1.17,1.62-1.62
			c0.58-0.45,1.24-0.79,1.93-1.03c1.28-0.46,2.67-0.57,4-0.31c2.9,0.56,5.19,2.77,5.86,5.64c0.11,0.44,0.17,0.9,0.16,1.36
			C189.04,125.97,189.04,126.15,189.01,126.33z"/>
		<path class="st3" d="M309.08,125.26c0,0.13-24.97,0.23-55.78,0.23s-55.78-0.11-55.78-0.23c0-0.13,24.97-0.23,55.78-0.23
			S309.08,125.09,309.08,125.26z"/>
		<circle class="st2" cx="444.31" cy="124.67" r="7.59"/>
		<circle class="st2" cx="467.48" cy="124.67" r="7.59"/>
		
			<ellipse transform="matrix(0.9247 -0.3807 0.3807 0.9247 -10.5087 196.2019)" class="st2" cx="490.65" cy="124.66" rx="7.59" ry="7.59"/>
	</g>
	<g id="freepik--speech-bubble--inject-46">
		<path class="st11" d="M281.97,112.08L271.9,94.32c13.84-22.38,6.92-51.74-15.46-65.58c-22.38-13.84-51.74-6.92-65.58,15.46
			c-13.84,22.38-6.92,51.74,15.46,65.58c16.88,10.44,38.47,9.32,54.18-2.81l0,0L281.97,112.08z"/>
		<path class="st3" d="M281.97,112.08l-21.53-4.92l-0.22-0.05l0.14-0.18l0,0l0.21,0.21c-3.01,2.34-6.3,4.32-9.78,5.89
			c-4.16,1.85-8.57,3.1-13.09,3.7c-2.49,0.35-5.01,0.47-7.53,0.38c-1.29-0.07-2.61-0.1-3.94-0.21l-4.02-0.61
			c-18.99-3.71-33.88-18.48-37.74-37.44c-1.37-7-1.18-14.22,0.56-21.14c1.8-7.24,5.29-13.94,10.2-19.55l1.94-2.14
			c0.64-0.71,1.4-1.31,2.09-1.97c0.69-0.66,1.38-1.33,2.16-1.88l2.28-1.7c0.75-0.58,1.55-1.1,2.38-1.56l2.41-1.46l2.52-1.23
			c0.83-0.43,1.68-0.81,2.55-1.13c6.77-2.68,14.05-3.8,21.32-3.28c6.86,0.47,13.54,2.44,19.55,5.78
			c10.81,6.02,18.9,15.96,22.59,27.77c1.47,5.02,2.16,10.23,2.06,15.46c-0.13,4.54-0.91,9.04-2.32,13.35
			c-1.19,3.58-2.79,7-4.77,10.21v-0.14l9.94,17.84l-10.18-17.69V94.3v-0.07c1.95-3.2,3.52-6.62,4.68-10.18
			c1.38-4.29,2.14-8.75,2.25-13.26c0.07-5.17-0.64-10.32-2.11-15.27c-3.66-11.68-11.67-21.51-22.36-27.47
			c-5.95-3.29-12.56-5.23-19.35-5.68c-7.17-0.51-14.37,0.6-21.05,3.24c-0.86,0.32-1.7,0.7-2.51,1.12l-2.49,1.21l-2.39,1.45
			c-0.81,0.46-1.59,0.98-2.33,1.55l-2.25,1.68c-0.74,0.58-1.46,1.2-2.13,1.86c-0.69,0.65-1.44,1.23-2.07,1.94l-1.92,2.11
			c-4.84,5.55-8.29,12.17-10.07,19.31c-1.73,6.84-1.92,13.98-0.57,20.9c1.31,6.55,4.01,12.74,7.92,18.16
			c7.03,9.81,17.52,16.58,29.36,18.93l3.98,0.61c1.32,0.12,2.62,0.14,3.9,0.23c2.49,0.1,4.99-0.01,7.46-0.35
			c4.47-0.58,8.83-1.8,12.95-3.61c3.46-1.54,6.73-3.49,9.74-5.79l0.9-0.68l-0.68,0.9l0,0l-0.08-0.23L281.97,112.08z"/>
		<path class="st3" d="M217.98,69.41c-0.01,2.67-2.19,4.82-4.86,4.81c-2.67-0.01-4.82-2.19-4.81-4.86c0.01-2.66,2.18-4.81,4.84-4.81
			c2.66,0,4.83,2.16,4.83,4.82C217.98,69.39,217.98,69.4,217.98,69.41z"/>
		<path class="st3" d="M237.3,69.41c-0.01,2.67-2.19,4.82-4.86,4.81c-2.67-0.01-4.82-2.19-4.81-4.86c0.01-2.66,2.18-4.81,4.84-4.81
			c2.66,0,4.83,2.16,4.83,4.82C237.3,69.39,237.3,69.4,237.3,69.41z"/>
		<path class="st3" d="M256.57,66.99c1.32,2.32,0.51,5.27-1.81,6.59c-2.32,1.32-5.27,0.51-6.59-1.81c-1.32-2.32-0.51-5.27,1.81-6.59
			c2.31-1.32,5.26-0.52,6.59,1.79C256.57,66.98,256.57,66.99,256.57,66.99z"/>
	</g>
	<g id="freepik--question-mark--inject-93">
		<path class="st12" d="M597.06,67.33h24.16c0,0,0-20.28,21.08-20.64c10.95-0.19,16.62,6.98,18.93,12.47
			c2.68,6.38,1.87,13.65-1.72,19.57c-4.1,6.76-12.92,13.54-29.2,10.68l-0.15,53.82h23.89v-31.91c0,0,33.5-8.66,33.5-45.6
			c0-35.33-28.57-42.96-43.92-43.45c-8.54-0.27-11.64-0.64-22.2,0.86C607.95,25.06,596.78,40.7,597.06,67.33z"/>
		<rect x="630.08" y="154.45" class="st12" width="24.25" height="22.64"/>
		<rect x="630.08" y="154.45" class="st4" width="24.25" height="22.64"/>
		<path class="st4" d="M597.06,67.33h24.16c0,0,0-20.28,21.08-20.64c10.95-0.19,16.62,6.98,18.93,12.47
			c2.68,6.38,1.87,13.65-1.72,19.57c-4.1,6.76-12.92,13.54-29.2,10.68l-0.15,53.82h23.89v-31.91c0,0,33.5-8.66,33.5-45.6
			c0-35.33-28.57-42.96-43.92-43.45c-8.54-0.27-11.64-0.64-22.2,0.86C607.95,25.06,596.78,40.7,597.06,67.33z"/>
		<path class="st10" d="M587.05,67.33h24.16c0,0,0-20.28,21.08-20.64c10.95-0.19,16.62,6.98,18.93,12.47
			c2.68,6.38,1.87,13.65-1.72,19.57c-4.1,6.76-13.08,12.9-29.36,10.04v54.46h23.89v-31.91c0,0,33.5-8.66,33.5-45.6
			c0-35.33-31.68-43.53-45.24-43.53C621.93,22.21,586.6,24.71,587.05,67.33z"/>
		<rect x="620.08" y="154.45" class="st10" width="24.25" height="22.64"/>
		<path class="st3" d="M635.02,46.8c-0.12,0.01-0.24,0.01-0.36,0c-0.24,0-0.58-0.08-1.03-0.08c-1.27-0.06-2.53-0.01-3.79,0.16
			c-1.86,0.24-3.69,0.67-5.47,1.28c-1.04,0.37-2.06,0.8-3.05,1.31c-1.06,0.53-2.06,1.18-2.98,1.93c-0.91,0.76-1.73,1.62-2.44,2.58
			c-0.67,0.88-1.28,1.81-1.83,2.77c-0.91,1.64-1.64,3.38-2.16,5.18c-0.35,1.22-0.6,2.46-0.73,3.72c-0.05,0.44-0.06,0.79-0.08,1.03
			c0,0.12-0.01,0.24-0.03,0.36c-0.01-0.12-0.01-0.24,0-0.36c0-0.24,0-0.59,0.04-1.04c0.1-1.27,0.32-2.54,0.67-3.76
			c0.5-1.82,1.22-3.58,2.13-5.24c0.55-0.97,1.16-1.91,1.84-2.8c0.71-0.97,1.54-1.85,2.47-2.61c0.93-0.76,1.94-1.42,3.02-1.95
			c0.99-0.52,2.01-0.97,3.07-1.34c1.79-0.62,3.64-1.04,5.52-1.25c1.26-0.16,2.54-0.18,3.81-0.09c0.35,0.02,0.69,0.06,1.03,0.13
			C634.79,46.73,634.9,46.76,635.02,46.8z"/>
		<path class="st3" d="M671.42,42.49c0,0-0.03-0.03-0.08-0.09c-0.05-0.06-0.13-0.17-0.21-0.29l-0.8-1.13
			c-0.17-0.24-0.36-0.52-0.57-0.81l-0.75-0.92l-0.86-1.06c-0.31-0.37-0.68-0.72-1.05-1.11c-0.37-0.39-0.74-0.8-1.17-1.2
			c-0.43-0.4-0.88-0.8-1.35-1.22c-0.23-0.21-0.46-0.42-0.72-0.64l-0.78-0.61c-0.53-0.42-1.06-0.84-1.63-1.25
			c-2.5-1.79-5.15-3.35-7.92-4.68l-2.2-1l-2.19-0.84c-0.72-0.3-1.44-0.51-2.15-0.74s-1.39-0.47-2.09-0.64l-2-0.52
			c-0.65-0.17-1.29-0.28-1.91-0.42s-1.21-0.27-1.79-0.34l-1.67-0.24c-1.06-0.18-2.03-0.22-2.87-0.3c-0.42-0.03-0.84-0.08-1.18-0.1
			l-1-0.03l-1.38-0.05h-0.36h-0.12c0.04-0.01,0.08-0.01,0.12,0h0.36h1.38h1c0.36,0,0.76,0.05,1.19,0.08
			c0.84,0.07,1.82,0.1,2.88,0.27l1.67,0.23c0.58,0.07,1.18,0.22,1.79,0.33s1.25,0.23,1.92,0.42l2.01,0.52
			c0.69,0.16,1.38,0.42,2.09,0.63s1.43,0.42,2.15,0.74l2.2,0.84l2.22,1c2.79,1.33,5.45,2.9,7.95,4.71c0.58,0.42,1.1,0.87,1.64,1.28
			l0.78,0.56c0.25,0.21,0.48,0.42,0.72,0.64l1.35,1.25c0.42,0.42,0.79,0.84,1.17,1.22c0.37,0.38,0.73,0.75,1.04,1.13l0.84,1.07
			l0.74,0.93c0.21,0.29,0.39,0.58,0.56,0.84c0.33,0.49,0.58,0.87,0.76,1.15l0.2,0.31C671.37,42.43,671.4,42.46,671.42,42.49z"/>
		<path class="st3" d="M668.9,94.36c-0.05,0.09-0.11,0.17-0.18,0.25l-0.58,0.68c-0.24,0.31-0.54,0.67-0.91,1.08
			s-0.77,0.88-1.25,1.38s-1,1.05-1.59,1.6c-0.59,0.56-1.23,1.14-1.91,1.75c-2.99,2.61-6.27,4.87-9.77,6.74
			c-0.81,0.42-1.58,0.84-2.32,1.16c-0.74,0.32-1.43,0.65-2.07,0.92c-0.64,0.27-1.22,0.49-1.73,0.69c-0.51,0.2-0.96,0.36-1.33,0.47
			l-0.84,0.27c-0.1,0.04-0.2,0.07-0.3,0.08c0.09-0.05,0.19-0.09,0.28-0.13l0.84-0.31c0.36-0.13,0.8-0.3,1.31-0.51
			c0.51-0.21,1.09-0.42,1.72-0.72c0.63-0.3,1.32-0.58,2.05-0.94c0.72-0.36,1.5-0.75,2.3-1.17c1.59-0.88,3.31-1.91,5.05-3.1
			c1.74-1.19,3.3-2.44,4.69-3.62c0.68-0.6,1.33-1.17,1.92-1.74c0.58-0.57,1.13-1.08,1.61-1.58c0.48-0.49,0.9-0.95,1.28-1.35
			s0.69-0.75,0.94-1.05l0.59-0.67C668.75,94.5,668.82,94.43,668.9,94.36z"/>
		<path class="st3" d="M643.61,141.33c-0.06,0-0.11-6.72-0.11-15s0.05-15.01,0.11-15.01s0.11,6.72,0.11,15.01
			S643.67,141.33,643.61,141.33z"/>
		<path class="st3" d="M644.53,175.56c-0.06,0-0.11-4.71-0.11-10.53c0-5.81,0.05-10.53,0.11-10.53c0.06,0,0.11,4.71,0.11,10.53
			S644.59,175.56,644.53,175.56z"/>
	</g>
</g>
</svg>
