<svg data-v-423bf9ae="" xmlns="http://www.w3.org/2000/svg" viewBox="0 0 333 90" class="iconLeft"><!----><!----><!----><g data-v-423bf9ae="" id="c4cf49e1-b641-4202-93ea-2d30f104b348" fill="black" transform="matrix(4.780876421364159,0,0,4.780876421364159,107.36477771962099,11.605577306976123)"><path d="M6.96 1.62L6.96 1.62Q7.13 1.74 7.13 1.92L7.13 1.92L7.13 1.92Q7.13 2.11 6.90 2.30L6.90 2.30L6.90 2.30Q6.16 2.88 5.70 3.81L5.70 3.81L5.70 3.81Q5.24 4.75 4.73 6.16L4.73 6.16L4.61 6.51L4.61 6.51Q4.14 7.76 3.72 9.16L3.72 9.16L3.72 9.16Q3.30 10.56 3.23 10.81L3.23 10.81L3.23 10.81Q3.00 11.63 2.80 12.26L2.80 12.26L2.80 12.26Q2.74 12.45 2.39 12.63L2.39 12.63L2.39 12.63Q2.03 12.82 1.72 12.82L1.72 12.82L1.72 12.82Q1.37 12.82 1.32 12.56L1.32 12.56L1.32 12.56Q0.55 8.75 0.55 4.84L0.55 4.84L0.55 4.84Q0.55 3.54 0.63 2.24L0.63 2.24L0.63 2.24Q0.64 1.99 1.00 1.79L1.00 1.79L1.00 1.79Q1.36 1.60 1.71 1.60L1.71 1.60L1.71 1.60Q1.90 1.60 2.02 1.68L2.02 1.68L2.02 1.68Q2.14 1.76 2.13 1.92L2.13 1.92L2.13 1.92Q2.06 3.36 2.06 4.51L2.06 4.51L2.06 4.51Q2.06 6.92 2.31 8.97L2.31 8.97L2.31 8.97Q2.98 6.90 3.33 5.99L3.33 5.99L3.33 5.99Q3.75 4.93 4.05 4.26L4.05 4.26L4.05 4.26Q4.34 3.60 4.80 2.93L4.80 2.93L4.80 2.93Q5.26 2.27 5.88 1.85L5.88 1.85L5.88 1.85Q6.33 1.54 6.68 1.54L6.68 1.54L6.68 1.54Q6.83 1.54 6.96 1.62L6.96 1.62ZM10.86 5.07L10.86 5.07Q10.15 5.61 9.70 6.83L9.70 6.83L9.70 6.83Q11.07 6.31 12.18 5.96L12.18 5.96L12.18 5.96Q11.72 5.32 11.24 5.10L11.24 5.10L11.24 5.10Q11.14 5.05 11.05 5.04L11.05 5.04L11.05 5.04Q10.96 5.03 10.95 5.03L10.95 5.03L10.95 5.03Q10.96 5.04 10.93 5.05L10.93 5.05L10.93 5.05Q10.89 5.07 10.86 5.07L10.86 5.07ZM10.92 4.07L10.92 4.07Q11.14 4.02 11.40 4.02L11.40 4.02L11.40 4.02Q12.74 4.02 13.83 5.82L13.83 5.82L13.83 5.82Q13.87 5.88 13.87 5.96L13.87 5.96L13.87 5.96Q13.87 6.12 13.68 6.29L13.68 6.29L13.68 6.29Q13.52 6.45 13.29 6.55L13.29 6.55L13.29 6.55Q11.89 7.17 9.39 8.02L9.39 8.02L9.39 8.02Q9.25 8.74 9.25 9.49L9.25 9.49L9.25 9.49Q9.25 9.84 9.27 10.00L9.27 10.00L9.27 10.00Q9.30 10.63 9.52 11.09L9.52 11.09L9.52 11.09Q9.59 11.24 9.72 11.38L9.72 11.38L9.72 11.38Q9.86 11.52 9.93 11.56L9.93 11.56L9.93 11.56Q9.97 11.59 10.07 11.59L10.07 11.59L10.07 11.59Q10.16 11.59 10.30 11.54L10.30 11.54L10.30 11.54Q10.43 11.48 10.60 11.38L10.60 11.38L10.60 11.38Q11.00 11.14 11.35 10.84L11.35 10.84L11.35 10.84Q11.70 10.53 12.19 10.04L12.19 10.04L12.19 10.04Q12.39 9.84 12.85 9.84L12.85 9.84L12.85 9.84Q13.10 9.84 13.28 9.92L13.28 9.92L13.28 9.92Q13.45 10.00 13.45 10.14L13.45 10.14L13.45 10.14Q13.45 10.26 13.31 10.42L13.31 10.42L13.31 10.42Q12.45 11.35 11.54 12.01L11.54 12.01L11.54 12.01Q10.63 12.67 9.72 12.67L9.72 12.67L9.72 12.67Q9.28 12.67 8.90 12.49L8.90 12.49L8.90 12.49Q8.27 12.19 7.99 11.55L7.99 11.55L7.99 11.55Q7.71 10.91 7.71 10.04L7.71 10.04L7.71 10.04Q7.71 9.39 7.88 8.53L7.88 8.53L7.77 8.55L7.66 8.60L7.66 8.60Q7.45 8.67 7.32 8.67L7.32 8.67L7.32 8.67Q7.13 8.67 7.01 8.57L7.01 8.57L7.01 8.57Q6.90 8.47 6.90 8.32L6.90 8.32L6.90 8.32Q6.90 8.13 7.05 7.96L7.05 7.96L7.05 7.96Q7.20 7.78 7.49 7.67L7.49 7.67L8.18 7.41L8.18 7.41Q8.30 7.01 8.55 6.38L8.55 6.38L8.55 6.38Q8.95 5.52 9.53 4.89L9.53 4.89L9.53 4.89Q10.12 4.26 10.92 4.07L10.92 4.07ZM19.68 4.06L19.68 4.06Q20.24 4.37 20.24 5.36L20.24 5.36L20.24 5.36Q20.24 5.73 20.17 6.17L20.17 6.17L20.17 6.17Q20.10 6.61 20.02 7L20.02 7L19.92 7.56L19.33 11.91L19.33 11.91Q19.61 11.98 19.57 12.26L19.57 12.26L19.57 12.26Q19.42 13.03 18.48 13.24L18.48 13.24L18.34 13.26L18.34 13.26Q18.10 13.26 17.92 13.16L17.92 13.16L17.92 13.16Q17.74 13.06 17.77 12.85L17.77 12.85L17.77 12.85Q18.35 8.60 18.63 6.47L18.63 6.47L18.63 6.47Q18.65 6.41 18.70 6.15L18.70 6.15L18.70 6.15Q18.75 5.88 18.75 5.64L18.75 5.64L18.75 5.64Q18.75 5.19 18.51 5.18L18.51 5.18L18.51 5.18Q18.33 5.15 17.91 5.68L17.91 5.68L17.91 5.68Q17.50 6.20 17.46 6.26L17.46 6.26L17.46 6.26Q16.62 7.21 15.89 8.39L15.89 8.39L15.89 8.39Q15.55 10.43 15.36 11.69L15.36 11.69L15.29 12.14L15.29 12.14Q15.25 12.40 14.90 12.60L14.90 12.60L14.90 12.60Q14.55 12.80 14.21 12.80L14.21 12.80L14.21 12.80Q14 12.80 13.88 12.71L13.88 12.71L13.88 12.71Q13.76 12.61 13.79 12.43L13.79 12.43L13.79 12.43Q14.15 10.29 14.36 8.93L14.36 8.93L14.36 8.93Q14.28 8.85 14.28 8.74L14.28 8.74L14.28 8.74Q14.28 8.67 14.32 8.58L14.32 8.58L14.32 8.58Q14.36 8.51 14.40 8.46L14.40 8.46L14.40 8.46Q14.43 8.40 14.46 8.36L14.46 8.36L15.02 4.97L15.02 4.97Q15.06 4.72 15.40 4.54L15.40 4.54L15.40 4.54Q15.74 4.35 16.07 4.35L16.07 4.35L16.07 4.35Q16.28 4.35 16.39 4.44L16.39 4.44L16.39 4.44Q16.51 4.52 16.48 4.69L16.48 4.69L16.48 4.69Q16.41 5.15 16.28 5.88L16.28 5.88L16.87 5.25L16.87 5.25Q17.46 4.66 17.99 4.28L17.99 4.28L17.99 4.28Q18.52 3.91 19.07 3.91L19.07 3.91L19.07 3.91Q19.42 3.91 19.68 4.06L19.68 4.06ZM25.96 9.49L25.96 9.49Q26.05 9.39 26.26 9.34L26.26 9.34L26.26 9.34Q26.47 9.28 26.68 9.28L26.68 9.28L26.68 9.28Q27.20 9.28 27.20 9.55L27.20 9.55L27.20 9.55Q27.20 9.67 27.06 9.83L27.06 9.83L27.06 9.83Q26.89 10.02 26.75 10.20L26.75 10.20L26.75 10.20Q26.61 10.37 26.50 10.51L26.50 10.51L26.50 10.51Q25.89 11.31 25.40 11.78L25.40 11.78L25.40 11.78Q24.91 12.25 24.25 12.46L24.25 12.46L24.25 12.46Q23.94 12.56 23.59 12.56L23.59 12.56L23.59 12.56Q23.00 12.56 22.59 12.22L22.59 12.22L22.59 12.22Q22.18 11.89 22.11 11.24L22.11 11.24L22.11 11.24Q22.08 11.06 22.08 10.68L22.08 10.68L22.08 10.68Q22.08 9.95 22.25 9.20L22.25 9.20L22.25 9.20Q22.41 8.44 22.74 7.31L22.74 7.31L22.90 6.71L22.37 6.76L22.37 6.76Q21.98 6.79 21.31 6.87L21.31 6.87L21.31 6.87Q20.99 6.92 20.82 6.80L20.82 6.80L20.82 6.80Q20.65 6.69 20.65 6.51L20.65 6.51L20.65 6.51Q20.65 6.30 20.85 6.10L20.85 6.10L20.85 6.10Q21.06 5.89 21.38 5.87L21.38 5.87L23.18 5.66L23.18 5.66Q23.80 3.39 24.57 1.20L24.57 1.20L24.57 1.20Q24.64 1.01 24.96 0.86L24.96 0.86L24.96 0.86Q25.27 0.71 25.56 0.71L25.56 0.71L25.56 0.71Q25.75 0.71 25.87 0.78L25.87 0.78L25.87 0.78Q25.98 0.85 25.98 0.99L25.98 0.99L25.98 0.99Q25.98 1.04 25.96 1.15L25.96 1.15L25.96 1.15Q25.14 3.43 24.60 5.50L24.60 5.50L24.60 5.50Q25.58 5.40 25.90 5.40L25.90 5.40L25.90 5.40Q26.31 5.40 26.31 5.64L26.31 5.64L26.31 5.64Q26.31 5.84 26.07 6.07L26.07 6.07L26.07 6.07Q25.83 6.30 25.58 6.36L25.58 6.36L25.58 6.36Q24.74 6.50 24.32 6.55L24.32 6.55L24.32 6.55Q24.08 7.50 23.90 8.41L23.90 8.41L23.90 8.41Q23.87 8.53 23.70 9.23L23.70 9.23L23.70 9.23Q23.53 9.94 23.53 10.56L23.53 10.56L23.53 10.56Q23.53 11.35 23.95 11.42L23.95 11.42L23.95 11.42Q24.22 11.47 24.56 11.12L24.56 11.12L24.56 11.12Q24.91 10.78 25.45 10.09L25.45 10.09L25.45 10.09Q25.79 9.66 25.96 9.49L25.96 9.49ZM33.61 4.77L33.61 4.77Q33.71 4.61 34.10 4.42L34.10 4.42L34.10 4.42Q34.48 4.23 34.78 4.23L34.78 4.23L34.78 4.23Q35.20 4.23 35.14 4.62L35.14 4.62L35.14 4.62Q35.14 4.66 35.13 4.75L35.13 4.75L35.13 4.75Q35.11 4.83 35.10 4.87L35.10 4.87L35.10 4.90L35.10 4.90Q34.96 5.84 34.78 7.15L34.78 7.15L34.78 7.15Q34.61 8.46 34.51 9.20L34.51 9.20L34.15 11.89L34.15 11.89Q34.10 12.17 33.75 12.36L33.75 12.36L33.75 12.36Q33.39 12.56 33.03 12.56L33.03 12.56L33.03 12.56Q32.80 12.56 32.67 12.46L32.67 12.46L32.67 12.46Q32.54 12.36 32.56 12.18L32.56 12.18L32.56 12.18Q32.72 10.98 33.05 8.57L33.05 8.57L32.91 8.81L32.91 8.81Q32.55 9.42 32.37 9.70L32.37 9.70L32.37 9.70Q31.74 10.68 31.03 11.35L31.03 11.35L31.03 11.35Q30.32 12.03 29.41 12.25L29.41 12.25L29.41 12.25Q29.06 12.33 28.78 12.33L28.78 12.33L28.78 12.33Q27.47 12.33 27.47 10.54L27.47 10.54L27.47 10.54Q27.47 9.70 27.73 8.63L27.73 8.63L27.73 8.63Q28 7.56 28.34 6.62L28.34 6.62L28.34 6.62Q28.69 5.68 28.94 5.19L28.94 5.19L28.94 5.19Q29.04 5.00 29.38 4.85L29.38 4.85L29.38 4.85Q29.72 4.70 30.04 4.70L30.04 4.70L30.04 4.70Q30.24 4.70 30.36 4.77L30.36 4.77L30.36 4.77Q30.48 4.84 30.48 4.97L30.48 4.97L30.48 4.97Q30.48 5.03 30.44 5.14L30.44 5.14L30.44 5.14Q29.50 7.20 29.22 8.88L29.22 8.88L29.15 9.25L29.15 9.25Q29.04 9.84 29.04 10.15L29.04 10.15L29.04 10.15Q29.04 10.30 29.05 10.37L29.05 10.37L29.05 10.37Q29.22 11.09 29.60 11.05L29.60 11.05L29.60 11.05Q29.75 11.03 29.97 10.78L29.97 10.78L29.97 10.78Q30.18 10.53 30.24 10.47L30.24 10.47L30.24 10.47Q30.93 9.67 31.49 8.73L31.49 8.73L31.49 8.73Q32.05 7.78 32.79 6.36L32.79 6.36L32.79 6.36Q33.17 5.59 33.61 4.77L33.61 4.77ZM39.00 3.88L39.00 3.88Q39.41 3.71 39.75 3.71L39.75 3.71L39.75 3.71Q40.11 3.71 40.33 3.90L40.33 3.90L40.33 3.90Q40.56 4.09 40.56 4.51L40.56 4.51L40.56 4.51Q40.56 4.91 40.43 5.39L40.43 5.39L40.43 5.39Q40.31 5.87 40.08 6.51L40.08 6.51L39.89 7.10L39.89 7.10Q39.80 7.36 39.45 7.55L39.45 7.55L39.45 7.55Q39.10 7.73 38.78 7.73L38.78 7.73L38.78 7.73Q38.57 7.73 38.47 7.64L38.47 7.64L38.47 7.64Q38.36 7.55 38.42 7.36L38.42 7.36L38.42 7.36Q38.67 6.58 38.92 5.63L38.92 5.63L38.92 5.63Q38.98 5.19 39.00 5.05L39.00 5.05L38.95 5.11L38.95 5.11Q37.87 6.03 36.97 7.43L36.97 7.43L36.97 7.43Q36.57 9.66 36.47 11.90L36.47 11.90L36.47 11.90Q36.46 12.17 36.11 12.37L36.11 12.37L36.11 12.37Q35.77 12.57 35.41 12.57L35.41 12.57L35.41 12.57Q35.20 12.57 35.06 12.47L35.06 12.47L35.06 12.47Q34.92 12.38 34.93 12.18L34.93 12.18L34.93 12.18Q35.04 10.16 35.36 8.26L35.36 8.26L35.36 8.26Q35.22 8.16 35.22 8.04L35.22 8.04L35.22 8.04Q35.22 7.95 35.28 7.85L35.28 7.85L35.49 7.50L35.49 7.50Q35.80 5.89 36.25 4.27L36.25 4.27L36.25 4.27Q36.32 4.02 36.69 3.83L36.69 3.83L36.69 3.83Q37.06 3.64 37.39 3.64L37.39 3.64L37.39 3.64Q37.60 3.64 37.72 3.72L37.72 3.72L37.72 3.72Q37.83 3.81 37.77 3.98L37.77 3.98L37.77 3.98Q37.55 4.76 37.49 5.01L37.49 5.01L37.49 5.01Q38.33 4.17 39.00 3.88L39.00 3.88ZM44.00 5.07L44.00 5.07Q43.29 5.61 42.84 6.83L42.84 6.83L42.84 6.83Q44.21 6.31 45.32 5.96L45.32 5.96L45.32 5.96Q44.86 5.32 44.38 5.10L44.38 5.10L44.38 5.10Q44.28 5.05 44.19 5.04L44.19 5.04L44.19 5.04Q44.10 5.03 44.09 5.03L44.09 5.03L44.09 5.03Q44.10 5.04 44.07 5.05L44.07 5.05L44.07 5.05Q44.03 5.07 44.00 5.07L44.00 5.07ZM44.06 4.07L44.06 4.07Q44.28 4.02 44.53 4.02L44.53 4.02L44.53 4.02Q45.88 4.02 46.97 5.82L46.97 5.82L46.97 5.82Q47.01 5.88 47.01 5.96L47.01 5.96L47.01 5.96Q47.01 6.12 46.82 6.29L46.82 6.29L46.82 6.29Q46.66 6.45 46.42 6.55L46.42 6.55L46.42 6.55Q45.02 7.17 42.53 8.02L42.53 8.02L42.53 8.02Q42.39 8.74 42.39 9.49L42.39 9.49L42.39 9.49Q42.39 9.84 42.41 10.00L42.41 10.00L42.41 10.00Q42.43 10.63 42.66 11.09L42.66 11.09L42.66 11.09Q42.73 11.24 42.86 11.38L42.86 11.38L42.86 11.38Q42.99 11.52 43.06 11.56L43.06 11.56L43.06 11.56Q43.11 11.59 43.20 11.59L43.20 11.59L43.20 11.59Q43.30 11.59 43.44 11.54L43.44 11.54L43.44 11.54Q43.57 11.48 43.74 11.38L43.74 11.38L43.74 11.38Q44.14 11.14 44.49 10.84L44.49 10.84L44.49 10.84Q44.84 10.53 45.33 10.04L45.33 10.04L45.33 10.04Q45.53 9.84 45.99 9.84L45.99 9.84L45.99 9.84Q46.24 9.84 46.42 9.92L46.42 9.92L46.42 9.92Q46.59 10.00 46.59 10.14L46.59 10.14L46.59 10.14Q46.59 10.26 46.45 10.42L46.45 10.42L46.45 10.42Q45.58 11.35 44.67 12.01L44.67 12.01L44.67 12.01Q43.76 12.67 42.85 12.67L42.85 12.67L42.85 12.67Q42.42 12.67 42.04 12.49L42.04 12.49L42.04 12.49Q41.41 12.19 41.13 11.55L41.13 11.55L41.13 11.55Q40.85 10.91 40.85 10.04L40.85 10.04L40.85 10.04Q40.85 9.39 41.02 8.53L41.02 8.53L40.91 8.55L40.80 8.60L40.80 8.60Q40.59 8.67 40.46 8.67L40.46 8.67L40.46 8.67Q40.26 8.67 40.15 8.57L40.15 8.57L40.15 8.57Q40.04 8.47 40.04 8.32L40.04 8.32L40.04 8.32Q40.04 8.13 40.19 7.96L40.19 7.96L40.19 7.96Q40.33 7.78 40.63 7.67L40.63 7.67L41.31 7.41L41.31 7.41Q41.44 7.01 41.69 6.38L41.69 6.38L41.69 6.38Q42.08 5.52 42.67 4.89L42.67 4.89L42.67 4.89Q43.26 4.26 44.06 4.07L44.06 4.07Z"></path></g><!----><g data-v-423bf9ae="" id="b56d1472-1380-47f0-99c9-ffa92c8d79f1" transform="matrix(1.249696354999329,0,0,1.249696354999329,-17.492879107603102,-16.491380493473443)" stroke="none" fill="black"><path d="M57 72.5H33.42a.5.5 0 0 1 0-1H57a.5.5 0 0 1 0 1zM62 76.5H45a.5.5 0 0 1 0-1h17a.5.5 0 0 1 0 1zM66.83 72.5H62a.5.5 0 0 1 0-1h4.83a.5.5 0 0 1 0 1zM53.83 80.5H49a.5.5 0 0 1 0-1h4.83a.5.5 0 0 1 0 1zM40.67 76.5h-1.59a.5.5 0 0 1 0-1h1.59a.5.5 0 0 1 0 1zM75.5 45a1.5 1.5 0 1 1 1.5-1.5 1.5 1.5 0 0 1-1.5 1.5zm0-2a.5.5 0 1 0 .5.5.5.5 0 0 0-.5-.5zM40.5 36a1.5 1.5 0 1 1 1.5-1.5 1.5 1.5 0 0 1-1.5 1.5zm0-2a.5.5 0 1 0 .5.5.5.5 0 0 0-.5-.5zM76 53a1 1 0 1 1 1-1 1 1 0 0 1-1 1zm0-1zM36 48.5a1.5 1.5 0 1 1 1.5-1.5 1.5 1.5 0 0 1-1.5 1.5zm0-2a.5.5 0 1 0 .5.5.5.5 0 0 0-.5-.5zM30.5 41a.5.5 0 0 1-.5-.5v-4a.5.5 0 0 1 1 0v4a.5.5 0 0 1-.5.5z"></path><path d="M32.5 39h-4a.5.5 0 0 1 0-1h4a.5.5 0 0 1 0 1zM68.5 47a.5.5 0 0 1-.5-.5v-2a.5.5 0 0 1 1 0v2a.5.5 0 0 1-.5.5z"></path><path d="M69.5 46h-2a.5.5 0 0 1 0-1h2a.5.5 0 0 1 0 1zM26.5 51a.5.5 0 0 1-.5-.5v-2a.5.5 0 0 1 1 0v2a.5.5 0 0 1-.5.5z"></path><path d="M27.5 50h-2a.5.5 0 0 1 0-1h2a.5.5 0 0 1 0 1zM24.13 27.14a1 1 0 0 1-.68-.27 1 1 0 0 1-.05-1.42c.41-.43.83-.86 1.27-1.28a1 1 0 1 1 1.39 1.45c-.42.39-.81.8-1.2 1.2a1 1 0 0 1-.73.32zM75.4 75.08a1 1 0 0 1-.73-1.69 34 34 0 0 0-45.56-50.22 1 1 0 0 1-1.4-.17 1 1 0 0 1 .17-1.41 36 36 0 0 1 48.24 53.18 1 1 0 0 1-.72.31z"></path><path d="M50 86a36 36 0 0 1-29-57.31 1 1 0 0 1 1.62 1.18 34 34 0 0 0 49.13 46.26A1 1 0 0 1 73 77.67 36.07 36.07 0 0 1 50 86z"></path><path d="M85 69H15a1 1 0 0 1 0-2h70a1 1 0 0 1 0 2zM50 55a1 1 0 0 1-.55-.17c-2.8-1.86-4.43-1.72-6-.94a1 1 0 0 1-.9-1.78c2.48-1.25 4.8-1 7.7.86a11.59 11.59 0 0 0 1.43-.42A8.28 8.28 0 0 1 54 52a1 1 0 0 1 0 2 7.9 7.9 0 0 0-1.68.45A8.28 8.28 0 0 1 50 55z"></path><path d="M64.63 69H24a1 1 0 0 1-.9-.56 1 1 0 0 1 .1-1l10-13.13a1.05 1.05 0 0 1 1.6 0l3.34 4.4 10-15.21a1.05 1.05 0 0 1 1.68 0l15.72 24a1 1 0 0 1 0 1 1 1 0 0 1-.91.5zM26 67h36.78L48.91 45.83 39 60.94a1 1 0 0 1-1.64.06L34 56.52z"></path><path d="M76.24 69H64.63a1 1 0 0 1-.84-.45l-6.86-10.47a1 1 0 0 1 0-1.16l5.3-6.92a1 1 0 0 1 .8-.39 1 1 0 0 1 .8.39L77 67.39a1 1 0 0 1 .1 1 1 1 0 0 1-.86.61zm-11.07-2h9L63 52.27l-4 5.3zM49 45a1 1 0 0 1-1-1V32a1 1 0 0 1 2 0v12a1 1 0 0 1-1 1z"></path><path d="M55.3 40.25c-.94 0-1.95-.07-2.94-.13S50.69 40 50 40a1 1 0 0 1 0-2c.76 0 1.6.06 2.5.12 1.92.13 5.15.36 5.61-.57 1.06-1.86.8-2.36.76-2.41-.4-.62-3.18-.35-4.85-.19a16.85 16.85 0 0 1-5.26 0 1 1 0 1 1 .48-1.95 16.23 16.23 0 0 0 4.59 0c2.91-.28 5.66-.55 6.72 1.1.88 1.36 0 3.18-.68 4.44-.71 1.38-2.49 1.71-4.57 1.71z"></path></g><!----></svg>